<svg xmlns="http://www.w3.org/2000/svg" xmlns:xlink="http://www.w3.org/1999/xlink" width="500" zoomAndPan="magnify" viewBox="0 0 375 374.999991" height="500" preserveAspectRatio="xMidYMid meet" version="1.0"><defs><clipPath id="id1"><path d="M 28.296875 0 L 347.046875 0 L 347.046875 375 L 28.296875 375 Z M 28.296875 0 " clip-rule="nonzero"/></clipPath><clipPath id="id2"><path d="M 220.808594 58.03125 C 220.46875 52.847656 221.554688 47.777344 223.832031 43.289062 C 226.113281 38.804688 229.566406 34.90625 233.941406 32.085938 C 238.320312 29.269531 243.308594 27.761719 248.363281 27.578125 C 253.394531 27.375 258.472656 28.503906 263.054688 30.960938 C 267.632812 33.417969 271.359375 37.046875 274 41.351562 C 276.617188 45.65625 278.082031 50.640625 278.171875 55.847656 C 278.21875 59.632812 275.171875 62.746094 271.378906 62.789062 C 267.589844 62.835938 264.476562 59.792969 264.429688 56.003906 C 264.386719 53.300781 263.617188 50.707031 262.261719 48.476562 C 260.910156 46.265625 258.96875 44.394531 256.554688 43.089844 C 254.164062 41.804688 251.5 41.21875 248.882812 41.308594 C 246.285156 41.398438 243.714844 42.1875 241.414062 43.675781 C 239.132812 45.140625 237.328125 47.167969 236.152344 49.488281 C 234.980469 51.8125 234.417969 54.472656 234.574219 57.199219 C 234.824219 60.984375 231.933594 64.253906 228.144531 64.480469 C 224.351562 64.726562 221.078125 61.84375 220.832031 58.054688 Z M 148.640625 348.886719 L 235.070312 348.886719 L 235.070312 360.832031 L 202.011719 360.832031 C 202.011719 368.5625 195.738281 374.808594 188.019531 374.808594 C 180.300781 374.808594 174.027344 368.542969 174.027344 360.832031 L 148.640625 360.832031 Z M 129.210938 327.382812 L 254.476562 327.382812 L 254.476562 339.328125 L 129.210938 339.328125 Z M 307.238281 118.082031 C 312.453125 120.335938 316.492188 124.28125 318.925781 129.082031 C 321.34375 133.863281 322.132812 139.453125 320.847656 144.976562 C 319.558594 150.5 316.378906 155.164062 312.066406 158.410156 C 307.78125 161.632812 302.410156 163.390625 296.746094 163.097656 C 292.953125 162.894531 290.019531 159.671875 290.222656 155.886719 C 290.425781 152.097656 293.652344 149.167969 297.445312 149.371094 C 299.8125 149.484375 302.046875 148.761719 303.808594 147.433594 C 305.570312 146.101562 306.878906 144.164062 307.394531 141.863281 C 307.9375 139.566406 307.621094 137.242188 306.605469 135.28125 C 305.613281 133.320312 303.945312 131.675781 301.753906 130.75 C 298.257812 129.242188 296.632812 125.207031 298.144531 121.710938 C 299.65625 118.21875 303.695312 116.597656 307.191406 118.105469 Z M 129.210938 315.253906 L 254.476562 315.253906 L 254.476562 269.605469 C 255.15625 269.425781 255.832031 269.222656 256.488281 269 C 267.679688 265.414062 277.652344 258.109375 284.46875 247.742188 C 288.304688 241.882812 290.855469 235.480469 292.117188 228.941406 C 296.382812 228.445312 300.511719 227.230469 304.328125 225.359375 C 310.035156 222.5625 315.023438 218.304688 318.726562 212.871094 C 322.425781 207.4375 324.570312 201.238281 325.089844 194.925781 C 325.425781 190.734375 325.042969 186.496094 323.960938 182.371094 C 327.007812 180.5 329.804688 178.292969 332.355469 175.8125 C 339.914062 168.417969 345.082031 158.589844 346.59375 147.566406 C 348.105469 136.546875 345.78125 125.703125 340.480469 116.574219 C 339.011719 114.027344 337.296875 111.636719 335.402344 109.382812 C 337.5 104.289062 338.652344 98.902344 338.832031 93.445312 C 339.058594 86.34375 337.636719 79.199219 334.519531 72.59375 C 331.40625 65.988281 326.804688 60.332031 321.160156 55.980469 C 316.851562 52.644531 311.933594 50.074219 306.628906 48.476562 C 305.253906 40.722656 302.273438 33.191406 297.738281 26.386719 C 291.011719 16.285156 281.535156 8.78125 270.769531 4.453125 C 260.03125 0.125 248 -1.003906 236.175781 1.613281 C 224.328125 4.226562 213.902344 10.359375 205.984375 18.8125 C 200.523438 24.648438 196.234375 31.613281 193.503906 39.324219 C 189.710938 50.074219 190.75 56.273438 190.75 67.703125 L 190.75 303.308594 L 174.773438 303.308594 L 174.773438 7.066406 C 110.371094 4.25 50.976562 46.695312 58.445312 115.917969 C 59.867188 125.589844 57.519531 134.3125 51.449219 142.089844 L 30.101562 169.273438 C 28.160156 172.183594 27.777344 175.855469 29.0625 179.082031 C 30.347656 182.328125 33.148438 184.714844 36.554688 185.527344 C 45.535156 187.128906 48.3125 191.433594 44.859375 198.445312 C 39.691406 203.742188 38.316406 207.597656 40.730469 210.007812 C 42.285156 211.722656 42.308594 214.3125 40.796875 216.050781 C 39.285156 218.101562 39.960938 220.421875 42.828125 222.992188 C 47.726562 229.28125 48.761719 236.359375 45.964844 244.25 C 44.226562 248.578125 44.453125 253.445312 46.597656 257.59375 C 48.742188 261.742188 52.597656 264.738281 57.136719 265.796875 C 64.582031 267.332031 72.210938 268.140625 79.949219 268.230469 C 102.359375 268.457031 118.785156 284.125 129.234375 315.230469 Z M 240.667969 303.308594 L 204.515625 303.308594 L 204.515625 205.835938 C 209.910156 208.089844 216.046875 208.496094 221.960938 206.558594 C 228.074219 204.550781 232.925781 200.40625 235.929688 195.175781 C 238.90625 189.96875 240.011719 183.679688 238.636719 177.433594 C 237.824219 173.714844 234.144531 171.371094 230.421875 172.183594 C 226.699219 172.996094 224.351562 176.667969 225.164062 180.386719 C 225.773438 183.207031 225.300781 186.046875 223.945312 188.367188 C 222.613281 190.691406 220.449219 192.539062 217.695312 193.441406 C 214.941406 194.339844 212.074219 194.136719 209.617188 193.035156 C 207.515625 192.109375 205.734375 190.53125 204.515625 188.457031 L 204.515625 102.914062 C 205.375 101.265625 206.707031 99.984375 208.261719 99.148438 C 210.15625 98.15625 212.414062 97.796875 214.625 98.335938 C 216.835938 98.878906 218.6875 100.1875 219.90625 101.921875 C 221.125 103.65625 221.710938 105.84375 221.464844 108.121094 C 221.035156 111.882812 223.742188 115.3125 227.535156 115.738281 C 231.324219 116.167969 234.734375 113.460938 235.160156 109.675781 C 235.816406 103.972656 234.28125 98.472656 231.191406 94.054688 C 228.097656 89.636719 223.449219 86.324219 217.875 84.96875 L 217.851562 84.96875 C 213.273438 83.867188 208.667969 84.226562 204.539062 85.78125 L 204.539062 66.960938 C 204.539062 56.273438 203.523438 49.558594 208.261719 39.550781 C 210.269531 35.332031 212.886719 31.480469 216.046875 28.121094 C 222.117188 21.652344 230.082031 16.960938 239.132812 14.957031 C 248.183594 12.949219 257.410156 13.828125 265.648438 17.164062 C 273.863281 20.480469 281.105469 26.203125 286.25 33.914062 C 291.398438 41.644531 293.902344 50.570312 293.789062 59.429688 C 293.675781 68.265625 290.898438 77.101562 285.550781 84.675781 C 283.363281 87.789062 284.109375 92.070312 287.222656 94.257812 C 290.335938 96.445312 294.644531 95.699219 296.8125 92.589844 C 303.019531 83.820312 306.539062 73.746094 307.351562 63.441406 C 309.269531 64.390625 311.074219 65.515625 312.746094 66.800781 C 316.648438 69.820312 319.875 73.789062 322.042969 78.410156 C 324.207031 83.03125 325.222656 88.011719 325.066406 92.972656 C 324.996094 95.203125 324.683594 97.433594 324.140625 99.621094 C 321.769531 98.15625 319.265625 96.871094 316.601562 95.789062 C 313.082031 94.347656 309.066406 96.058594 307.621094 99.578125 C 306.199219 103.09375 307.894531 107.105469 311.414062 108.546875 C 318.835938 111.546875 324.75 116.890625 328.539062 123.425781 C 332.332031 129.984375 334.003906 137.761719 332.917969 145.695312 C 331.835938 153.609375 328.132812 160.640625 322.71875 165.917969 C 317.304688 171.214844 310.171875 174.753906 302.230469 175.65625 C 298.460938 176.082031 295.753906 179.507812 296.179688 183.273438 C 296.609375 187.039062 299.996094 189.71875 303.742188 189.335938 C 306.222656 189.042969 308.683594 188.570312 311.03125 187.941406 C 311.367188 189.878906 311.457031 191.863281 311.300781 193.824219 C 310.984375 197.835938 309.628906 201.734375 307.328125 205.140625 C 305.003906 208.566406 301.867188 211.226562 298.28125 213.003906 C 296.585938 213.839844 294.78125 214.472656 292.910156 214.875 C 292.863281 214.472656 292.839844 214.066406 292.796875 213.660156 C 291.621094 201.984375 286.566406 190.710938 277.8125 181.875 C 275.125 179.195312 270.769531 179.171875 268.085938 181.851562 C 265.378906 184.535156 265.378906 188.863281 268.0625 191.570312 C 274.515625 198.082031 278.242188 206.402344 279.097656 214.988281 C 279.957031 223.601562 277.945312 232.503906 272.914062 240.191406 C 267.882812 247.878906 260.527344 253.265625 252.265625 255.902344 C 244.03125 258.539062 234.867188 258.449219 226.316406 255.136719 C 222.773438 253.761719 218.777344 255.519531 217.425781 259.058594 C 216.046875 262.597656 217.808594 266.5625 221.351562 267.9375 C 227.667969 270.375 234.191406 271.523438 240.644531 271.5 L 240.644531 303.285156 Z M 230.242188 223.984375 C 227.464844 221.390625 223.109375 221.550781 220.515625 224.320312 C 217.921875 227.09375 218.078125 231.46875 220.875 234.035156 C 225.636719 238.476562 231.707031 240.820312 237.847656 241.023438 C 243.960938 241.226562 250.167969 239.289062 255.222656 235.164062 C 260.300781 231.039062 263.460938 225.359375 264.496094 219.316406 C 265.535156 213.320312 264.453125 206.917969 261.066406 201.328125 C 259.105469 198.082031 254.882812 197.046875 251.636719 199.007812 C 248.386719 200.96875 247.347656 205.183594 249.308594 208.429688 C 250.914062 211.066406 251.410156 214.109375 250.914062 216.996094 C 250.417969 219.859375 248.925781 222.539062 246.535156 224.480469 C 244.144531 226.441406 241.1875 227.34375 238.277344 227.25 C 235.386719 227.160156 232.519531 226.035156 230.242188 223.9375 Z M 280.992188 139.65625 C 277.496094 138.144531 273.457031 139.722656 271.945312 143.21875 C 269.9375 147.816406 266.4375 151.378906 262.21875 153.519531 C 257.976562 155.660156 253.035156 156.359375 248.113281 155.253906 C 243.21875 154.148438 239.066406 151.378906 236.152344 147.636719 C 233.265625 143.894531 231.617188 139.160156 231.800781 134.132812 C 231.910156 130.347656 228.933594 127.167969 225.140625 127.054688 C 221.351562 126.941406 218.167969 129.917969 218.054688 133.703125 C 217.785156 142 220.46875 149.84375 225.277344 156.042969 C 230.082031 162.242188 236.988281 166.839844 245.113281 168.667969 C 253.238281 170.492188 261.429688 169.34375 268.425781 165.804688 C 275.441406 162.265625 281.242188 156.359375 284.582031 148.71875 C 286.09375 145.246094 284.515625 141.1875 281.015625 139.679688 Z M 251.929688 121.894531 C 248.316406 123.085938 246.375 126.988281 247.59375 130.59375 C 248.792969 134.199219 252.695312 136.140625 256.304688 134.921875 C 263.683594 132.441406 269.53125 127.414062 273.140625 121.125 C 276.75 114.835938 278.128906 107.285156 276.570312 99.691406 C 275.011719 92.09375 270.75 85.691406 264.925781 81.339844 C 259.105469 76.96875 251.769531 74.644531 244.050781 75.253906 C 240.261719 75.546875 237.417969 78.863281 237.710938 82.648438 C 238.003906 86.433594 241.320312 89.277344 245.113281 88.984375 C 249.402344 88.644531 253.460938 89.90625 256.667969 92.320312 C 259.871094 94.730469 262.21875 98.246094 263.074219 102.441406 C 263.933594 106.609375 263.167969 110.800781 261.15625 114.296875 C 259.148438 117.769531 255.945312 120.539062 251.929688 121.894531 Z M 251.929688 121.894531 " clip-rule="evenodd"/></clipPath><linearGradient x1="115.643458" gradientTransform="matrix(2.256637, 0, 0, 2.254148, 28.295458, 0.19156)" y1="-3.960799" x2="87.876111" gradientUnits="userSpaceOnUse" y2="179.490965" id="id3"><stop stop-opacity="1" stop-color="rgb(100%, 100%, 100%)" offset="0"/><stop stop-opacity="1" stop-color="rgb(100%, 100%, 100%)" offset="0.03125"/><stop stop-opacity="1" stop-color="rgb(100%, 100%, 100%)" offset="0.046875"/><stop stop-opacity="1" stop-color="rgb(100%, 99.928284%, 99.928284%)" offset="0.0546875"/><stop stop-opacity="1" stop-color="rgb(100%, 99.417114%, 99.417114%)" offset="0.0585938"/><stop stop-opacity="1" stop-color="rgb(100%, 98.977661%, 98.977661%)" offset="0.0625"/><stop stop-opacity="1" stop-color="rgb(100%, 98.536682%, 98.536682%)" offset="0.0664063"/><stop stop-opacity="1" stop-color="rgb(100%, 98.097229%, 98.097229%)" offset="0.0703125"/><stop stop-opacity="1" stop-color="rgb(100%, 97.65625%, 97.65625%)" offset="0.0742188"/><stop stop-opacity="1" stop-color="rgb(100%, 97.216797%, 97.216797%)" offset="0.078125"/><stop stop-opacity="1" stop-color="rgb(100%, 96.775818%, 96.775818%)" offset="0.0820313"/><stop stop-opacity="1" stop-color="rgb(100%, 96.336365%, 96.336365%)" offset="0.0859375"/><stop stop-opacity="1" stop-color="rgb(100%, 95.895386%, 95.895386%)" offset="0.0898438"/><stop stop-opacity="1" stop-color="rgb(100%, 95.455933%, 95.455933%)" offset="0.09375"/><stop stop-opacity="1" stop-color="rgb(100%, 95.016479%, 95.016479%)" offset="0.0976563"/><stop stop-opacity="1" stop-color="rgb(100%, 94.577026%, 94.577026%)" offset="0.101563"/><stop stop-opacity="1" stop-color="rgb(100%, 94.136047%, 94.136047%)" offset="0.105469"/><stop stop-opacity="1" stop-color="rgb(100%, 93.696594%, 93.696594%)" offset="0.109375"/><stop stop-opacity="1" stop-color="rgb(100%, 93.255615%, 93.255615%)" offset="0.113281"/><stop stop-opacity="1" stop-color="rgb(100%, 92.816162%, 92.816162%)" offset="0.117188"/><stop stop-opacity="1" stop-color="rgb(100%, 92.375183%, 92.375183%)" offset="0.121094"/><stop stop-opacity="1" stop-color="rgb(100%, 91.93573%, 91.93573%)" offset="0.125"/><stop stop-opacity="1" stop-color="rgb(100%, 91.496277%, 91.496277%)" offset="0.128906"/><stop stop-opacity="1" stop-color="rgb(100%, 91.056824%, 91.056824%)" offset="0.132813"/><stop stop-opacity="1" stop-color="rgb(100%, 90.615845%, 90.615845%)" offset="0.136719"/><stop stop-opacity="1" stop-color="rgb(100%, 90.176392%, 90.176392%)" offset="0.140625"/><stop stop-opacity="1" stop-color="rgb(100%, 89.735413%, 89.735413%)" offset="0.144531"/><stop stop-opacity="1" stop-color="rgb(100%, 89.295959%, 89.295959%)" offset="0.148438"/><stop stop-opacity="1" stop-color="rgb(100%, 88.85498%, 88.85498%)" offset="0.152344"/><stop stop-opacity="1" stop-color="rgb(100%, 88.415527%, 88.415527%)" offset="0.15625"/><stop stop-opacity="1" stop-color="rgb(100%, 87.976074%, 87.976074%)" offset="0.160156"/><stop stop-opacity="1" stop-color="rgb(100%, 87.536621%, 87.536621%)" offset="0.164063"/><stop stop-opacity="1" stop-color="rgb(100%, 87.095642%, 87.095642%)" offset="0.167969"/><stop stop-opacity="1" stop-color="rgb(100%, 86.656189%, 86.656189%)" offset="0.171875"/><stop stop-opacity="1" stop-color="rgb(100%, 86.21521%, 86.21521%)" offset="0.175781"/><stop stop-opacity="1" stop-color="rgb(100%, 85.775757%, 85.775757%)" offset="0.179688"/><stop stop-opacity="1" stop-color="rgb(100%, 85.334778%, 85.334778%)" offset="0.183594"/><stop stop-opacity="1" stop-color="rgb(100%, 84.895325%, 84.895325%)" offset="0.1875"/><stop stop-opacity="1" stop-color="rgb(100%, 84.455872%, 84.455872%)" offset="0.191406"/><stop stop-opacity="1" stop-color="rgb(100%, 84.016418%, 84.016418%)" offset="0.195313"/><stop stop-opacity="1" stop-color="rgb(100%, 83.575439%, 83.575439%)" offset="0.199219"/><stop stop-opacity="1" stop-color="rgb(100%, 83.135986%, 83.135986%)" offset="0.203125"/><stop stop-opacity="1" stop-color="rgb(100%, 82.695007%, 82.695007%)" offset="0.207031"/><stop stop-opacity="1" stop-color="rgb(100%, 82.255554%, 82.255554%)" offset="0.210937"/><stop stop-opacity="1" stop-color="rgb(100%, 81.814575%, 81.814575%)" offset="0.214844"/><stop stop-opacity="1" stop-color="rgb(100%, 81.375122%, 81.375122%)" offset="0.21875"/><stop stop-opacity="1" stop-color="rgb(100%, 80.935669%, 80.935669%)" offset="0.222656"/><stop stop-opacity="1" stop-color="rgb(100%, 80.496216%, 80.496216%)" offset="0.226563"/><stop stop-opacity="1" stop-color="rgb(100%, 80.055237%, 80.055237%)" offset="0.230469"/><stop stop-opacity="1" stop-color="rgb(100%, 79.615784%, 79.615784%)" offset="0.234375"/><stop stop-opacity="1" stop-color="rgb(100%, 79.174805%, 79.174805%)" offset="0.238281"/><stop stop-opacity="1" stop-color="rgb(100%, 78.735352%, 78.735352%)" offset="0.242188"/><stop stop-opacity="1" stop-color="rgb(100%, 78.294373%, 78.294373%)" offset="0.246094"/><stop stop-opacity="1" stop-color="rgb(100%, 77.854919%, 77.854919%)" offset="0.25"/><stop stop-opacity="1" stop-color="rgb(100%, 77.415466%, 77.415466%)" offset="0.253906"/><stop stop-opacity="1" stop-color="rgb(100%, 76.976013%, 76.976013%)" offset="0.257813"/><stop stop-opacity="1" stop-color="rgb(100%, 76.535034%, 76.535034%)" offset="0.261719"/><stop stop-opacity="1" stop-color="rgb(100%, 76.095581%, 76.095581%)" offset="0.265625"/><stop stop-opacity="1" stop-color="rgb(100%, 75.654602%, 75.654602%)" offset="0.269531"/><stop stop-opacity="1" stop-color="rgb(100%, 75.215149%, 75.215149%)" offset="0.273438"/><stop stop-opacity="1" stop-color="rgb(100%, 74.77417%, 74.77417%)" offset="0.277344"/><stop stop-opacity="1" stop-color="rgb(100%, 74.334717%, 74.334717%)" offset="0.28125"/><stop stop-opacity="1" stop-color="rgb(100%, 73.895264%, 73.895264%)" offset="0.285156"/><stop stop-opacity="1" stop-color="rgb(100%, 73.455811%, 73.455811%)" offset="0.289062"/><stop stop-opacity="1" stop-color="rgb(100%, 73.014832%, 73.014832%)" offset="0.292969"/><stop stop-opacity="1" stop-color="rgb(100%, 72.575378%, 72.575378%)" offset="0.296875"/><stop stop-opacity="1" stop-color="rgb(100%, 72.134399%, 72.134399%)" offset="0.300781"/><stop stop-opacity="1" stop-color="rgb(100%, 71.694946%, 71.694946%)" offset="0.304688"/><stop stop-opacity="1" stop-color="rgb(100%, 71.253967%, 71.253967%)" offset="0.308594"/><stop stop-opacity="1" stop-color="rgb(100%, 70.814514%, 70.814514%)" offset="0.3125"/><stop stop-opacity="1" stop-color="rgb(100%, 70.375061%, 70.375061%)" offset="0.316406"/><stop stop-opacity="1" stop-color="rgb(100%, 69.935608%, 69.935608%)" offset="0.320312"/><stop stop-opacity="1" stop-color="rgb(100%, 69.494629%, 69.494629%)" offset="0.324219"/><stop stop-opacity="1" stop-color="rgb(100%, 69.055176%, 69.055176%)" offset="0.328125"/><stop stop-opacity="1" stop-color="rgb(100%, 68.614197%, 68.614197%)" offset="0.332031"/><stop stop-opacity="1" stop-color="rgb(100%, 68.174744%, 68.174744%)" offset="0.335938"/><stop stop-opacity="1" stop-color="rgb(100%, 67.733765%, 67.733765%)" offset="0.339844"/><stop stop-opacity="1" stop-color="rgb(100%, 67.294312%, 67.294312%)" offset="0.34375"/><stop stop-opacity="1" stop-color="rgb(100%, 66.854858%, 66.854858%)" offset="0.347656"/><stop stop-opacity="1" stop-color="rgb(100%, 66.415405%, 66.415405%)" offset="0.351563"/><stop stop-opacity="1" stop-color="rgb(100%, 65.974426%, 65.974426%)" offset="0.355469"/><stop stop-opacity="1" stop-color="rgb(100%, 65.534973%, 65.534973%)" offset="0.359375"/><stop stop-opacity="1" stop-color="rgb(100%, 65.093994%, 65.093994%)" offset="0.363281"/><stop stop-opacity="1" stop-color="rgb(100%, 64.654541%, 64.654541%)" offset="0.367188"/><stop stop-opacity="1" stop-color="rgb(100%, 64.213562%, 64.213562%)" offset="0.371094"/><stop stop-opacity="1" stop-color="rgb(100%, 63.774109%, 63.774109%)" offset="0.375"/><stop stop-opacity="1" stop-color="rgb(100%, 63.334656%, 63.334656%)" offset="0.378906"/><stop stop-opacity="1" stop-color="rgb(100%, 62.895203%, 62.895203%)" offset="0.382813"/><stop stop-opacity="1" stop-color="rgb(100%, 62.454224%, 62.454224%)" offset="0.386719"/><stop stop-opacity="1" stop-color="rgb(100%, 62.014771%, 62.014771%)" offset="0.390625"/><stop stop-opacity="1" stop-color="rgb(100%, 61.573792%, 61.573792%)" offset="0.394531"/><stop stop-opacity="1" stop-color="rgb(100%, 61.134338%, 61.134338%)" offset="0.398438"/><stop stop-opacity="1" stop-color="rgb(100%, 60.693359%, 60.693359%)" offset="0.402344"/><stop stop-opacity="1" stop-color="rgb(100%, 60.253906%, 60.253906%)" offset="0.40625"/><stop stop-opacity="1" stop-color="rgb(100%, 59.814453%, 59.814453%)" offset="0.410156"/><stop stop-opacity="1" stop-color="rgb(100%, 59.375%, 59.375%)" offset="0.414062"/><stop stop-opacity="1" stop-color="rgb(100%, 58.934021%, 58.934021%)" offset="0.417969"/><stop stop-opacity="1" stop-color="rgb(100%, 58.494568%, 58.494568%)" offset="0.421875"/><stop stop-opacity="1" stop-color="rgb(100%, 58.053589%, 58.053589%)" offset="0.425781"/><stop stop-opacity="1" stop-color="rgb(100%, 57.614136%, 57.614136%)" offset="0.429688"/><stop stop-opacity="1" stop-color="rgb(100%, 57.173157%, 57.173157%)" offset="0.433594"/><stop stop-opacity="1" stop-color="rgb(100%, 56.733704%, 56.733704%)" offset="0.4375"/><stop stop-opacity="1" stop-color="rgb(100%, 56.29425%, 56.29425%)" offset="0.441406"/><stop stop-opacity="1" stop-color="rgb(100%, 55.854797%, 55.854797%)" offset="0.445313"/><stop stop-opacity="1" stop-color="rgb(100%, 55.413818%, 55.413818%)" offset="0.449219"/><stop stop-opacity="1" stop-color="rgb(100%, 54.974365%, 54.974365%)" offset="0.453125"/><stop stop-opacity="1" stop-color="rgb(100%, 54.533386%, 54.533386%)" offset="0.457031"/><stop stop-opacity="1" stop-color="rgb(100%, 54.093933%, 54.093933%)" offset="0.460938"/><stop stop-opacity="1" stop-color="rgb(100%, 53.652954%, 53.652954%)" offset="0.464844"/><stop stop-opacity="1" stop-color="rgb(100%, 53.213501%, 53.213501%)" offset="0.46875"/><stop stop-opacity="1" stop-color="rgb(100%, 52.774048%, 52.774048%)" offset="0.472656"/><stop stop-opacity="1" stop-color="rgb(100%, 52.334595%, 52.334595%)" offset="0.476563"/><stop stop-opacity="1" stop-color="rgb(100%, 51.893616%, 51.893616%)" offset="0.480469"/><stop stop-opacity="1" stop-color="rgb(100%, 51.454163%, 51.454163%)" offset="0.484375"/><stop stop-opacity="1" stop-color="rgb(100%, 51.013184%, 51.013184%)" offset="0.488281"/><stop stop-opacity="1" stop-color="rgb(100%, 50.57373%, 50.57373%)" offset="0.492188"/><stop stop-opacity="1" stop-color="rgb(100%, 50.132751%, 50.132751%)" offset="0.496094"/><stop stop-opacity="1" stop-color="rgb(100%, 49.693298%, 49.693298%)" offset="0.5"/><stop stop-opacity="1" stop-color="rgb(100%, 49.253845%, 49.253845%)" offset="0.503906"/><stop stop-opacity="1" stop-color="rgb(100%, 48.814392%, 48.814392%)" offset="0.507813"/><stop stop-opacity="1" stop-color="rgb(100%, 48.373413%, 48.373413%)" offset="0.511719"/><stop stop-opacity="1" stop-color="rgb(100%, 47.93396%, 47.93396%)" offset="0.515625"/><stop stop-opacity="1" stop-color="rgb(100%, 47.492981%, 47.492981%)" offset="0.519531"/><stop stop-opacity="1" stop-color="rgb(100%, 47.053528%, 47.053528%)" offset="0.523438"/><stop stop-opacity="1" stop-color="rgb(100%, 46.612549%, 46.612549%)" offset="0.527344"/><stop stop-opacity="1" stop-color="rgb(100%, 46.173096%, 46.173096%)" offset="0.53125"/><stop stop-opacity="1" stop-color="rgb(100%, 45.733643%, 45.733643%)" offset="0.535156"/><stop stop-opacity="1" stop-color="rgb(100%, 45.294189%, 45.294189%)" offset="0.539063"/><stop stop-opacity="1" stop-color="rgb(100%, 44.85321%, 44.85321%)" offset="0.542969"/><stop stop-opacity="1" stop-color="rgb(100%, 44.413757%, 44.413757%)" offset="0.546875"/><stop stop-opacity="1" stop-color="rgb(100%, 43.972778%, 43.972778%)" offset="0.550781"/><stop stop-opacity="1" stop-color="rgb(100%, 43.533325%, 43.533325%)" offset="0.554688"/><stop stop-opacity="1" stop-color="rgb(100%, 43.092346%, 43.092346%)" offset="0.558594"/><stop stop-opacity="1" stop-color="rgb(100%, 42.652893%, 42.652893%)" offset="0.5625"/><stop stop-opacity="1" stop-color="rgb(100%, 42.21344%, 42.21344%)" offset="0.566406"/><stop stop-opacity="1" stop-color="rgb(100%, 41.773987%, 41.773987%)" offset="0.570313"/><stop stop-opacity="1" stop-color="rgb(100%, 41.333008%, 41.333008%)" offset="0.574219"/><stop stop-opacity="1" stop-color="rgb(100%, 40.893555%, 40.893555%)" offset="0.578125"/><stop stop-opacity="1" stop-color="rgb(100%, 40.452576%, 40.452576%)" offset="0.582031"/><stop stop-opacity="1" stop-color="rgb(100%, 40.013123%, 40.013123%)" offset="0.585938"/><stop stop-opacity="1" stop-color="rgb(100%, 39.572144%, 39.572144%)" offset="0.589844"/><stop stop-opacity="1" stop-color="rgb(100%, 39.13269%, 39.13269%)" offset="0.59375"/><stop stop-opacity="1" stop-color="rgb(100%, 38.693237%, 38.693237%)" offset="0.597656"/><stop stop-opacity="1" stop-color="rgb(100%, 38.253784%, 38.253784%)" offset="0.601563"/><stop stop-opacity="1" stop-color="rgb(100%, 37.812805%, 37.812805%)" offset="0.605469"/><stop stop-opacity="1" stop-color="rgb(100%, 37.373352%, 37.373352%)" offset="0.609375"/><stop stop-opacity="1" stop-color="rgb(100%, 36.932373%, 36.932373%)" offset="0.613281"/><stop stop-opacity="1" stop-color="rgb(100%, 36.49292%, 36.49292%)" offset="0.617188"/><stop stop-opacity="1" stop-color="rgb(100%, 36.051941%, 36.051941%)" offset="0.621094"/><stop stop-opacity="1" stop-color="rgb(100%, 35.612488%, 35.612488%)" offset="0.625"/><stop stop-opacity="1" stop-color="rgb(100%, 35.173035%, 35.173035%)" offset="0.628906"/><stop stop-opacity="1" stop-color="rgb(100%, 34.733582%, 34.733582%)" offset="0.632812"/><stop stop-opacity="1" stop-color="rgb(100%, 34.292603%, 34.292603%)" offset="0.636719"/><stop stop-opacity="1" stop-color="rgb(100%, 33.853149%, 33.853149%)" offset="0.640625"/><stop stop-opacity="1" stop-color="rgb(100%, 33.41217%, 33.41217%)" offset="0.644531"/><stop stop-opacity="1" stop-color="rgb(100%, 32.972717%, 32.972717%)" offset="0.648438"/><stop stop-opacity="1" stop-color="rgb(100%, 32.531738%, 32.531738%)" offset="0.652344"/><stop stop-opacity="1" stop-color="rgb(100%, 32.092285%, 32.092285%)" offset="0.65625"/><stop stop-opacity="1" stop-color="rgb(100%, 31.652832%, 31.652832%)" offset="0.660156"/><stop stop-opacity="1" stop-color="rgb(100%, 31.213379%, 31.213379%)" offset="0.664063"/><stop stop-opacity="1" stop-color="rgb(100%, 30.7724%, 30.7724%)" offset="0.667969"/><stop stop-opacity="1" stop-color="rgb(100%, 30.332947%, 30.332947%)" offset="0.671875"/><stop stop-opacity="1" stop-color="rgb(100%, 29.891968%, 29.891968%)" offset="0.675781"/><stop stop-opacity="1" stop-color="rgb(100%, 29.452515%, 29.452515%)" offset="0.679688"/><stop stop-opacity="1" stop-color="rgb(100%, 29.011536%, 29.011536%)" offset="0.683594"/><stop stop-opacity="1" stop-color="rgb(100%, 28.572083%, 28.572083%)" offset="0.6875"/><stop stop-opacity="1" stop-color="rgb(100%, 28.132629%, 28.132629%)" offset="0.691406"/><stop stop-opacity="1" stop-color="rgb(100%, 27.693176%, 27.693176%)" offset="0.695313"/><stop stop-opacity="1" stop-color="rgb(100%, 27.252197%, 27.252197%)" offset="0.699219"/><stop stop-opacity="1" stop-color="rgb(100%, 26.812744%, 26.812744%)" offset="0.703125"/><stop stop-opacity="1" stop-color="rgb(100%, 26.371765%, 26.371765%)" offset="0.707031"/><stop stop-opacity="1" stop-color="rgb(100%, 25.932312%, 25.932312%)" offset="0.710938"/><stop stop-opacity="1" stop-color="rgb(100%, 25.491333%, 25.491333%)" offset="0.714844"/><stop stop-opacity="1" stop-color="rgb(100%, 25.05188%, 25.05188%)" offset="0.71875"/><stop stop-opacity="1" stop-color="rgb(100%, 24.612427%, 24.612427%)" offset="0.722656"/><stop stop-opacity="1" stop-color="rgb(100%, 24.172974%, 24.172974%)" offset="0.726563"/><stop stop-opacity="1" stop-color="rgb(100%, 23.731995%, 23.731995%)" offset="0.730469"/><stop stop-opacity="1" stop-color="rgb(100%, 23.292542%, 23.292542%)" offset="0.734375"/><stop stop-opacity="1" stop-color="rgb(100%, 22.851562%, 22.851562%)" offset="0.738281"/><stop stop-opacity="1" stop-color="rgb(100%, 22.412109%, 22.412109%)" offset="0.742188"/><stop stop-opacity="1" stop-color="rgb(100%, 21.97113%, 21.97113%)" offset="0.746094"/><stop stop-opacity="1" stop-color="rgb(100%, 21.531677%, 21.531677%)" offset="0.75"/><stop stop-opacity="1" stop-color="rgb(100%, 21.092224%, 21.092224%)" offset="0.753906"/><stop stop-opacity="1" stop-color="rgb(100%, 20.652771%, 20.652771%)" offset="0.757813"/><stop stop-opacity="1" stop-color="rgb(100%, 20.211792%, 20.211792%)" offset="0.761719"/><stop stop-opacity="1" stop-color="rgb(100%, 19.772339%, 19.772339%)" offset="0.765625"/><stop stop-opacity="1" stop-color="rgb(100%, 19.33136%, 19.33136%)" offset="0.769531"/><stop stop-opacity="1" stop-color="rgb(100%, 18.891907%, 18.891907%)" offset="0.773438"/><stop stop-opacity="1" stop-color="rgb(100%, 18.450928%, 18.450928%)" offset="0.777344"/><stop stop-opacity="1" stop-color="rgb(100%, 18.011475%, 18.011475%)" offset="0.78125"/><stop stop-opacity="1" stop-color="rgb(100%, 17.572021%, 17.572021%)" offset="0.785156"/><stop stop-opacity="1" stop-color="rgb(100%, 17.132568%, 17.132568%)" offset="0.789063"/><stop stop-opacity="1" stop-color="rgb(100%, 16.691589%, 16.691589%)" offset="0.792969"/><stop stop-opacity="1" stop-color="rgb(100%, 16.252136%, 16.252136%)" offset="0.796875"/><stop stop-opacity="1" stop-color="rgb(100%, 15.811157%, 15.811157%)" offset="0.800781"/><stop stop-opacity="1" stop-color="rgb(100%, 15.371704%, 15.371704%)" offset="0.804688"/><stop stop-opacity="1" stop-color="rgb(100%, 14.930725%, 14.930725%)" offset="0.808594"/><stop stop-opacity="1" stop-color="rgb(100%, 14.491272%, 14.491272%)" offset="0.8125"/><stop stop-opacity="1" stop-color="rgb(100%, 14.051819%, 14.051819%)" offset="0.816406"/><stop stop-opacity="1" stop-color="rgb(100%, 13.612366%, 13.612366%)" offset="0.820312"/><stop stop-opacity="1" stop-color="rgb(100%, 13.171387%, 13.171387%)" offset="0.824219"/><stop stop-opacity="1" stop-color="rgb(100%, 12.731934%, 12.731934%)" offset="0.828125"/><stop stop-opacity="1" stop-color="rgb(100%, 12.290955%, 12.290955%)" offset="0.832031"/><stop stop-opacity="1" stop-color="rgb(100%, 11.851501%, 11.851501%)" offset="0.835937"/><stop stop-opacity="1" stop-color="rgb(100%, 11.410522%, 11.410522%)" offset="0.839844"/><stop stop-opacity="1" stop-color="rgb(100%, 10.971069%, 10.971069%)" offset="0.84375"/><stop stop-opacity="1" stop-color="rgb(100%, 10.531616%, 10.531616%)" offset="0.847656"/><stop stop-opacity="1" stop-color="rgb(100%, 10.092163%, 10.092163%)" offset="0.851562"/><stop stop-opacity="1" stop-color="rgb(100%, 9.651184%, 9.651184%)" offset="0.855469"/><stop stop-opacity="1" stop-color="rgb(100%, 9.211731%, 9.211731%)" offset="0.859375"/><stop stop-opacity="1" stop-color="rgb(100%, 8.905029%, 8.905029%)" offset="0.863281"/><stop stop-opacity="1" stop-color="rgb(100%, 8.599854%, 8.599854%)" offset="0.867187"/><stop stop-opacity="1" stop-color="rgb(100%, 8.599854%, 8.599854%)" offset="0.875"/><stop stop-opacity="1" stop-color="rgb(100%, 8.599854%, 8.599854%)" offset="0.886069"/><stop stop-opacity="1" stop-color="rgb(100%, 8.599854%, 8.599854%)" offset="1"/></linearGradient></defs><g clip-path="url(#id1)"><g clip-path="url(#id2)"><path fill="url(#id3)" d="M 28.296875 0 L 28.296875 374.808594 L 347.046875 374.808594 L 347.046875 0 Z M 28.296875 0 " fill-rule="nonzero"/></g></g></svg>