<svg xmlns="http://www.w3.org/2000/svg" xmlns:xlink="http://www.w3.org/1999/xlink" width="500" zoomAndPan="magnify" viewBox="0 0 375 374.999991" height="500" preserveAspectRatio="xMidYMid meet" version="1.0"><defs><g/><clipPath id="id1"><path d="M 74.328125 68.433594 L 148.578125 68.433594 L 148.578125 155.433594 L 74.328125 155.433594 Z M 74.328125 68.433594 " clip-rule="nonzero"/></clipPath><clipPath id="id2"><path d="M 119.171875 81.890625 C 119.09375 80.691406 119.347656 79.511719 119.875 78.472656 C 120.40625 77.429688 121.210938 76.527344 122.230469 75.871094 C 123.25 75.21875 124.414062 74.867188 125.589844 74.828125 C 126.761719 74.78125 127.945312 75.039062 129.011719 75.609375 C 130.078125 76.179688 130.949219 77.023438 131.5625 78.023438 C 132.171875 79.019531 132.515625 80.175781 132.535156 81.386719 C 132.546875 82.265625 131.835938 82.984375 130.953125 82.996094 C 130.070312 83.007812 129.34375 82.300781 129.332031 81.421875 C 129.324219 80.792969 129.144531 80.191406 128.828125 79.675781 C 128.511719 79.164062 128.0625 78.726562 127.5 78.425781 C 126.941406 78.125 126.320312 77.992188 125.710938 78.011719 C 125.105469 78.03125 124.507812 78.214844 123.972656 78.5625 C 123.441406 78.902344 123.019531 79.371094 122.746094 79.910156 C 122.472656 80.449219 122.34375 81.066406 122.378906 81.699219 C 122.4375 82.578125 121.765625 83.335938 120.878906 83.386719 C 119.996094 83.445312 119.234375 82.777344 119.175781 81.898438 Z M 102.363281 149.378906 L 122.496094 149.378906 L 122.496094 152.152344 L 114.792969 152.152344 C 114.792969 153.945312 113.332031 155.394531 111.535156 155.394531 C 109.738281 155.394531 108.277344 153.941406 108.277344 152.152344 L 102.363281 152.152344 Z M 97.835938 144.390625 L 127.015625 144.390625 L 127.015625 147.160156 L 97.835938 147.160156 Z M 139.304688 95.824219 C 140.519531 96.347656 141.460938 97.265625 142.027344 98.378906 C 142.589844 99.488281 142.773438 100.785156 142.476562 102.066406 C 142.175781 103.347656 141.433594 104.429688 140.429688 105.183594 C 139.429688 105.929688 138.179688 106.339844 136.859375 106.269531 C 135.976562 106.222656 135.292969 105.476562 135.34375 104.597656 C 135.390625 103.71875 136.140625 103.039062 137.023438 103.085938 C 137.574219 103.113281 138.097656 102.945312 138.507812 102.636719 C 138.917969 102.328125 139.222656 101.878906 139.34375 101.34375 C 139.46875 100.808594 139.394531 100.273438 139.15625 99.816406 C 138.925781 99.363281 138.539062 98.980469 138.027344 98.765625 C 137.214844 98.414062 136.835938 97.480469 137.1875 96.667969 C 137.539062 95.855469 138.480469 95.480469 139.292969 95.832031 Z M 97.835938 141.574219 L 127.015625 141.574219 L 127.015625 130.984375 C 127.171875 130.941406 127.332031 130.894531 127.484375 130.84375 C 130.089844 130.011719 132.414062 128.316406 134 125.910156 C 134.894531 124.550781 135.488281 123.066406 135.785156 121.546875 C 136.777344 121.433594 137.738281 121.152344 138.628906 120.71875 C 139.957031 120.066406 141.117188 119.078125 141.980469 117.820312 C 142.84375 116.558594 143.34375 115.121094 143.464844 113.65625 C 143.542969 112.683594 143.453125 111.699219 143.199219 110.742188 C 143.910156 110.308594 144.5625 109.796875 145.15625 109.222656 C 146.917969 107.503906 148.121094 105.226562 148.472656 102.667969 C 148.824219 100.109375 148.285156 97.59375 147.046875 95.476562 C 146.707031 94.882812 146.308594 94.332031 145.867188 93.808594 C 146.355469 92.625 146.621094 91.375 146.664062 90.109375 C 146.71875 88.460938 146.386719 86.804688 145.660156 85.269531 C 144.933594 83.738281 143.863281 82.425781 142.546875 81.417969 C 141.542969 80.640625 140.398438 80.046875 139.164062 79.675781 C 138.84375 77.875 138.148438 76.128906 137.09375 74.550781 C 135.527344 72.207031 133.316406 70.464844 130.8125 69.460938 C 128.308594 68.457031 125.507812 68.195312 122.753906 68.800781 C 119.992188 69.40625 117.5625 70.832031 115.71875 72.792969 C 114.445312 74.148438 113.449219 75.761719 112.8125 77.550781 C 111.929688 80.046875 112.171875 81.484375 112.171875 84.136719 L 112.171875 138.804688 L 108.449219 138.804688 L 108.449219 70.066406 C 93.445312 69.414062 79.609375 79.261719 81.351562 95.324219 C 81.683594 97.566406 81.136719 99.589844 79.722656 101.394531 L 74.75 107.703125 C 74.296875 108.378906 74.207031 109.230469 74.507812 109.980469 C 74.804688 110.730469 75.457031 111.285156 76.253906 111.476562 C 78.34375 111.847656 78.992188 112.84375 78.1875 114.472656 C 76.984375 115.699219 76.660156 116.59375 77.222656 117.15625 C 77.585938 117.550781 77.59375 118.152344 77.242188 118.558594 C 76.886719 119.03125 77.046875 119.570312 77.714844 120.167969 C 78.855469 121.625 79.097656 123.269531 78.445312 125.101562 C 78.039062 126.105469 78.09375 127.234375 78.589844 128.195312 C 79.089844 129.160156 79.988281 129.855469 81.046875 130.101562 C 82.78125 130.457031 84.558594 130.644531 86.359375 130.664062 C 91.582031 130.71875 95.40625 134.351562 97.839844 141.570312 Z M 123.796875 138.804688 L 115.378906 138.804688 L 115.378906 116.1875 C 116.632812 116.710938 118.0625 116.804688 119.441406 116.355469 C 120.863281 115.890625 121.996094 114.925781 122.695312 113.714844 C 123.386719 112.503906 123.644531 111.046875 123.324219 109.597656 C 123.136719 108.734375 122.277344 108.191406 121.410156 108.378906 C 120.542969 108.566406 119.996094 109.417969 120.1875 110.28125 C 120.328125 110.9375 120.21875 111.59375 119.902344 112.132812 C 119.59375 112.671875 119.089844 113.101562 118.445312 113.3125 C 117.804688 113.519531 117.136719 113.472656 116.566406 113.214844 C 116.078125 113.003906 115.660156 112.636719 115.378906 112.15625 L 115.378906 92.304688 C 115.578125 91.925781 115.886719 91.625 116.25 91.433594 C 116.691406 91.203125 117.21875 91.117188 117.730469 91.246094 C 118.246094 91.371094 118.679688 91.671875 118.960938 92.074219 C 119.246094 92.480469 119.382812 92.984375 119.324219 93.515625 C 119.226562 94.386719 119.855469 95.183594 120.738281 95.28125 C 121.621094 95.382812 122.414062 94.753906 122.515625 93.875 C 122.667969 92.550781 122.3125 91.277344 121.589844 90.25 C 120.871094 89.226562 119.789062 88.457031 118.488281 88.144531 L 118.484375 88.144531 C 117.417969 87.886719 116.34375 87.96875 115.382812 88.332031 L 115.382812 83.964844 C 115.382812 81.484375 115.144531 79.925781 116.25 77.605469 C 116.71875 76.625 117.328125 75.730469 118.0625 74.953125 C 119.476562 73.449219 121.332031 72.363281 123.441406 71.898438 C 125.546875 71.433594 127.699219 71.636719 129.617188 72.410156 C 131.53125 73.179688 133.21875 74.507812 134.417969 76.296875 C 135.613281 78.089844 136.199219 80.160156 136.171875 82.21875 C 136.144531 84.265625 135.5 86.316406 134.253906 88.074219 C 133.742188 88.796875 133.917969 89.789062 134.644531 90.296875 C 135.367188 90.804688 136.371094 90.632812 136.875 89.910156 C 138.324219 87.875 139.140625 85.539062 139.332031 83.148438 C 139.777344 83.367188 140.199219 83.628906 140.589844 83.925781 C 141.496094 84.628906 142.25 85.546875 142.753906 86.621094 C 143.257812 87.691406 143.496094 88.847656 143.457031 90 C 143.441406 90.515625 143.367188 91.035156 143.242188 91.542969 C 142.691406 91.203125 142.105469 90.902344 141.488281 90.652344 C 140.667969 90.320312 139.730469 90.714844 139.394531 91.53125 C 139.0625 92.347656 139.457031 93.277344 140.277344 93.613281 C 142.007812 94.308594 143.382812 95.546875 144.269531 97.066406 C 145.152344 98.585938 145.539062 100.390625 145.289062 102.234375 C 145.035156 104.070312 144.171875 105.699219 142.910156 106.925781 C 141.648438 108.152344 139.988281 108.976562 138.136719 109.183594 C 137.261719 109.285156 136.628906 110.078125 136.730469 110.953125 C 136.828125 111.824219 137.617188 112.449219 138.492188 112.359375 C 139.070312 112.289062 139.640625 112.179688 140.1875 112.035156 C 140.265625 112.484375 140.289062 112.945312 140.25 113.398438 C 140.179688 114.332031 139.863281 115.234375 139.328125 116.023438 C 138.785156 116.820312 138.054688 117.4375 137.21875 117.851562 C 136.824219 118.042969 136.402344 118.191406 135.96875 118.285156 C 135.957031 118.191406 135.953125 118.097656 135.941406 118.003906 C 135.667969 115.292969 134.492188 112.679688 132.449219 110.628906 C 131.824219 110.003906 130.8125 110 130.183594 110.621094 C 129.554688 111.246094 129.554688 112.25 130.179688 112.875 C 131.683594 114.386719 132.550781 116.316406 132.75 118.3125 C 132.949219 120.308594 132.480469 122.375 131.308594 124.160156 C 130.136719 125.941406 128.425781 127.191406 126.5 127.804688 C 124.582031 128.414062 122.449219 128.394531 120.453125 127.625 C 119.628906 127.308594 118.699219 127.714844 118.382812 128.535156 C 118.0625 129.355469 118.472656 130.277344 119.296875 130.597656 C 120.769531 131.160156 122.289062 131.429688 123.792969 131.421875 L 123.792969 138.796875 Z M 121.371094 120.398438 C 120.722656 119.796875 119.707031 119.832031 119.105469 120.476562 C 118.5 121.121094 118.535156 122.132812 119.1875 122.730469 C 120.296875 123.761719 121.710938 124.304688 123.140625 124.351562 C 124.566406 124.398438 126.011719 123.949219 127.1875 122.992188 C 128.371094 122.035156 129.109375 120.71875 129.347656 119.316406 C 129.589844 117.925781 129.339844 116.4375 128.550781 115.140625 C 128.09375 114.386719 127.109375 114.148438 126.351562 114.601562 C 125.597656 115.058594 125.355469 116.035156 125.8125 116.789062 C 126.183594 117.402344 126.300781 118.105469 126.183594 118.777344 C 126.070312 119.441406 125.722656 120.0625 125.164062 120.511719 C 124.609375 120.96875 123.917969 121.175781 123.242188 121.15625 C 122.566406 121.136719 121.902344 120.875 121.371094 120.386719 Z M 133.191406 100.832031 C 132.378906 100.480469 131.4375 100.847656 131.085938 101.65625 C 130.617188 102.726562 129.800781 103.550781 128.820312 104.046875 C 127.832031 104.542969 126.679688 104.707031 125.53125 104.449219 C 124.390625 104.195312 123.425781 103.550781 122.746094 102.683594 C 122.074219 101.816406 121.691406 100.714844 121.734375 99.550781 C 121.757812 98.671875 121.066406 97.933594 120.183594 97.90625 C 119.296875 97.882812 118.558594 98.570312 118.53125 99.449219 C 118.46875 101.375 119.09375 103.195312 120.214844 104.632812 C 121.332031 106.070312 122.941406 107.140625 124.832031 107.5625 C 126.726562 107.988281 128.632812 107.71875 130.265625 106.898438 C 131.898438 106.078125 133.25 104.707031 134.027344 102.933594 C 134.378906 102.128906 134.011719 101.1875 133.195312 100.835938 Z M 126.421875 96.710938 C 125.582031 96.988281 125.128906 97.890625 125.410156 98.730469 C 125.691406 99.566406 126.601562 100.015625 127.441406 99.734375 C 129.160156 99.15625 130.523438 97.992188 131.363281 96.53125 C 132.203125 95.074219 132.523438 93.320312 132.160156 91.558594 C 131.800781 89.796875 130.804688 88.308594 129.449219 87.300781 C 128.09375 86.285156 126.382812 85.746094 124.585938 85.886719 C 123.703125 85.957031 123.042969 86.726562 123.109375 87.605469 C 123.179688 88.484375 123.949219 89.140625 124.832031 89.074219 C 125.832031 88.996094 126.777344 89.289062 127.523438 89.847656 C 128.273438 90.40625 128.820312 91.222656 129.019531 92.195312 C 129.21875 93.164062 129.039062 94.136719 128.570312 94.949219 C 128.101562 95.753906 127.355469 96.394531 126.421875 96.710938 Z M 126.421875 96.710938 " clip-rule="evenodd"/></clipPath><linearGradient x1="115.64193" gradientTransform="matrix(0.525664, 0, 0, 0.523027, 74.328082, 68.471648)" y1="-3.950704" x2="87.876112" gradientUnits="userSpaceOnUse" y2="179.490959" id="id3"><stop stop-opacity="1" stop-color="rgb(100%, 100%, 100%)" offset="0"/><stop stop-opacity="1" stop-color="rgb(100%, 100%, 100%)" offset="0.03125"/><stop stop-opacity="1" stop-color="rgb(100%, 100%, 100%)" offset="0.046875"/><stop stop-opacity="1" stop-color="rgb(100%, 99.925232%, 99.925232%)" offset="0.0546875"/><stop stop-opacity="1" stop-color="rgb(100%, 99.411011%, 99.411011%)" offset="0.0585937"/><stop stop-opacity="1" stop-color="rgb(100%, 98.971558%, 98.971558%)" offset="0.0625"/><stop stop-opacity="1" stop-color="rgb(100%, 98.530579%, 98.530579%)" offset="0.0664062"/><stop stop-opacity="1" stop-color="rgb(100%, 98.091125%, 98.091125%)" offset="0.0703125"/><stop stop-opacity="1" stop-color="rgb(100%, 97.650146%, 97.650146%)" offset="0.0742187"/><stop stop-opacity="1" stop-color="rgb(100%, 97.210693%, 97.210693%)" offset="0.078125"/><stop stop-opacity="1" stop-color="rgb(100%, 96.77124%, 96.77124%)" offset="0.0820312"/><stop stop-opacity="1" stop-color="rgb(100%, 96.331787%, 96.331787%)" offset="0.0859375"/><stop stop-opacity="1" stop-color="rgb(100%, 95.890808%, 95.890808%)" offset="0.0898438"/><stop stop-opacity="1" stop-color="rgb(100%, 95.451355%, 95.451355%)" offset="0.09375"/><stop stop-opacity="1" stop-color="rgb(100%, 95.010376%, 95.010376%)" offset="0.0976562"/><stop stop-opacity="1" stop-color="rgb(100%, 94.570923%, 94.570923%)" offset="0.101562"/><stop stop-opacity="1" stop-color="rgb(100%, 94.129944%, 94.129944%)" offset="0.105469"/><stop stop-opacity="1" stop-color="rgb(100%, 93.690491%, 93.690491%)" offset="0.109375"/><stop stop-opacity="1" stop-color="rgb(100%, 93.251038%, 93.251038%)" offset="0.113281"/><stop stop-opacity="1" stop-color="rgb(100%, 92.811584%, 92.811584%)" offset="0.117187"/><stop stop-opacity="1" stop-color="rgb(100%, 92.370605%, 92.370605%)" offset="0.121094"/><stop stop-opacity="1" stop-color="rgb(100%, 91.931152%, 91.931152%)" offset="0.125"/><stop stop-opacity="1" stop-color="rgb(100%, 91.490173%, 91.490173%)" offset="0.128906"/><stop stop-opacity="1" stop-color="rgb(100%, 91.05072%, 91.05072%)" offset="0.132812"/><stop stop-opacity="1" stop-color="rgb(100%, 90.609741%, 90.609741%)" offset="0.136719"/><stop stop-opacity="1" stop-color="rgb(100%, 90.170288%, 90.170288%)" offset="0.140625"/><stop stop-opacity="1" stop-color="rgb(100%, 89.730835%, 89.730835%)" offset="0.144531"/><stop stop-opacity="1" stop-color="rgb(100%, 89.291382%, 89.291382%)" offset="0.148437"/><stop stop-opacity="1" stop-color="rgb(100%, 88.850403%, 88.850403%)" offset="0.152344"/><stop stop-opacity="1" stop-color="rgb(100%, 88.41095%, 88.41095%)" offset="0.15625"/><stop stop-opacity="1" stop-color="rgb(100%, 87.969971%, 87.969971%)" offset="0.160156"/><stop stop-opacity="1" stop-color="rgb(100%, 87.530518%, 87.530518%)" offset="0.164062"/><stop stop-opacity="1" stop-color="rgb(100%, 87.091064%, 87.091064%)" offset="0.167969"/><stop stop-opacity="1" stop-color="rgb(100%, 86.651611%, 86.651611%)" offset="0.171875"/><stop stop-opacity="1" stop-color="rgb(100%, 86.210632%, 86.210632%)" offset="0.175781"/><stop stop-opacity="1" stop-color="rgb(100%, 85.771179%, 85.771179%)" offset="0.179687"/><stop stop-opacity="1" stop-color="rgb(100%, 85.3302%, 85.3302%)" offset="0.183594"/><stop stop-opacity="1" stop-color="rgb(100%, 84.890747%, 84.890747%)" offset="0.1875"/><stop stop-opacity="1" stop-color="rgb(100%, 84.449768%, 84.449768%)" offset="0.191406"/><stop stop-opacity="1" stop-color="rgb(100%, 84.010315%, 84.010315%)" offset="0.195312"/><stop stop-opacity="1" stop-color="rgb(100%, 83.570862%, 83.570862%)" offset="0.199219"/><stop stop-opacity="1" stop-color="rgb(100%, 83.131409%, 83.131409%)" offset="0.203125"/><stop stop-opacity="1" stop-color="rgb(100%, 82.69043%, 82.69043%)" offset="0.207031"/><stop stop-opacity="1" stop-color="rgb(100%, 82.250977%, 82.250977%)" offset="0.210937"/><stop stop-opacity="1" stop-color="rgb(100%, 81.809998%, 81.809998%)" offset="0.214844"/><stop stop-opacity="1" stop-color="rgb(100%, 81.370544%, 81.370544%)" offset="0.21875"/><stop stop-opacity="1" stop-color="rgb(100%, 80.931091%, 80.931091%)" offset="0.222656"/><stop stop-opacity="1" stop-color="rgb(100%, 80.491638%, 80.491638%)" offset="0.226562"/><stop stop-opacity="1" stop-color="rgb(100%, 80.050659%, 80.050659%)" offset="0.230469"/><stop stop-opacity="1" stop-color="rgb(100%, 79.611206%, 79.611206%)" offset="0.234375"/><stop stop-opacity="1" stop-color="rgb(100%, 79.170227%, 79.170227%)" offset="0.238281"/><stop stop-opacity="1" stop-color="rgb(100%, 78.730774%, 78.730774%)" offset="0.242187"/><stop stop-opacity="1" stop-color="rgb(100%, 78.289795%, 78.289795%)" offset="0.246094"/><stop stop-opacity="1" stop-color="rgb(100%, 77.850342%, 77.850342%)" offset="0.25"/><stop stop-opacity="1" stop-color="rgb(100%, 77.410889%, 77.410889%)" offset="0.253906"/><stop stop-opacity="1" stop-color="rgb(100%, 76.971436%, 76.971436%)" offset="0.257812"/><stop stop-opacity="1" stop-color="rgb(100%, 76.530457%, 76.530457%)" offset="0.261719"/><stop stop-opacity="1" stop-color="rgb(100%, 76.091003%, 76.091003%)" offset="0.265625"/><stop stop-opacity="1" stop-color="rgb(100%, 75.650024%, 75.650024%)" offset="0.269531"/><stop stop-opacity="1" stop-color="rgb(100%, 75.210571%, 75.210571%)" offset="0.273437"/><stop stop-opacity="1" stop-color="rgb(100%, 74.771118%, 74.771118%)" offset="0.277344"/><stop stop-opacity="1" stop-color="rgb(100%, 74.331665%, 74.331665%)" offset="0.28125"/><stop stop-opacity="1" stop-color="rgb(100%, 73.890686%, 73.890686%)" offset="0.285156"/><stop stop-opacity="1" stop-color="rgb(100%, 73.451233%, 73.451233%)" offset="0.289062"/><stop stop-opacity="1" stop-color="rgb(100%, 73.010254%, 73.010254%)" offset="0.292969"/><stop stop-opacity="1" stop-color="rgb(100%, 72.570801%, 72.570801%)" offset="0.296875"/><stop stop-opacity="1" stop-color="rgb(100%, 72.129822%, 72.129822%)" offset="0.300781"/><stop stop-opacity="1" stop-color="rgb(100%, 71.690369%, 71.690369%)" offset="0.304687"/><stop stop-opacity="1" stop-color="rgb(100%, 71.250916%, 71.250916%)" offset="0.308594"/><stop stop-opacity="1" stop-color="rgb(100%, 70.811462%, 70.811462%)" offset="0.3125"/><stop stop-opacity="1" stop-color="rgb(100%, 70.370483%, 70.370483%)" offset="0.316406"/><stop stop-opacity="1" stop-color="rgb(100%, 69.93103%, 69.93103%)" offset="0.320312"/><stop stop-opacity="1" stop-color="rgb(100%, 69.490051%, 69.490051%)" offset="0.324219"/><stop stop-opacity="1" stop-color="rgb(100%, 69.050598%, 69.050598%)" offset="0.328125"/><stop stop-opacity="1" stop-color="rgb(100%, 68.609619%, 68.609619%)" offset="0.332031"/><stop stop-opacity="1" stop-color="rgb(100%, 68.170166%, 68.170166%)" offset="0.335937"/><stop stop-opacity="1" stop-color="rgb(100%, 67.730713%, 67.730713%)" offset="0.339844"/><stop stop-opacity="1" stop-color="rgb(100%, 67.29126%, 67.29126%)" offset="0.34375"/><stop stop-opacity="1" stop-color="rgb(100%, 66.850281%, 66.850281%)" offset="0.347656"/><stop stop-opacity="1" stop-color="rgb(100%, 66.410828%, 66.410828%)" offset="0.351562"/><stop stop-opacity="1" stop-color="rgb(100%, 65.969849%, 65.969849%)" offset="0.355469"/><stop stop-opacity="1" stop-color="rgb(100%, 65.530396%, 65.530396%)" offset="0.359375"/><stop stop-opacity="1" stop-color="rgb(100%, 65.090942%, 65.090942%)" offset="0.363281"/><stop stop-opacity="1" stop-color="rgb(100%, 64.651489%, 64.651489%)" offset="0.367187"/><stop stop-opacity="1" stop-color="rgb(100%, 64.21051%, 64.21051%)" offset="0.371094"/><stop stop-opacity="1" stop-color="rgb(100%, 63.771057%, 63.771057%)" offset="0.375"/><stop stop-opacity="1" stop-color="rgb(100%, 63.330078%, 63.330078%)" offset="0.378906"/><stop stop-opacity="1" stop-color="rgb(100%, 62.890625%, 62.890625%)" offset="0.382812"/><stop stop-opacity="1" stop-color="rgb(100%, 62.449646%, 62.449646%)" offset="0.386719"/><stop stop-opacity="1" stop-color="rgb(100%, 62.010193%, 62.010193%)" offset="0.390625"/><stop stop-opacity="1" stop-color="rgb(100%, 61.57074%, 61.57074%)" offset="0.394531"/><stop stop-opacity="1" stop-color="rgb(100%, 61.131287%, 61.131287%)" offset="0.398437"/><stop stop-opacity="1" stop-color="rgb(100%, 60.690308%, 60.690308%)" offset="0.402344"/><stop stop-opacity="1" stop-color="rgb(100%, 60.250854%, 60.250854%)" offset="0.40625"/><stop stop-opacity="1" stop-color="rgb(100%, 59.809875%, 59.809875%)" offset="0.410156"/><stop stop-opacity="1" stop-color="rgb(100%, 59.370422%, 59.370422%)" offset="0.414062"/><stop stop-opacity="1" stop-color="rgb(100%, 58.930969%, 58.930969%)" offset="0.417969"/><stop stop-opacity="1" stop-color="rgb(100%, 58.491516%, 58.491516%)" offset="0.421875"/><stop stop-opacity="1" stop-color="rgb(100%, 58.050537%, 58.050537%)" offset="0.425781"/><stop stop-opacity="1" stop-color="rgb(100%, 57.611084%, 57.611084%)" offset="0.429687"/><stop stop-opacity="1" stop-color="rgb(100%, 57.170105%, 57.170105%)" offset="0.433594"/><stop stop-opacity="1" stop-color="rgb(100%, 56.730652%, 56.730652%)" offset="0.4375"/><stop stop-opacity="1" stop-color="rgb(100%, 56.289673%, 56.289673%)" offset="0.441406"/><stop stop-opacity="1" stop-color="rgb(100%, 55.85022%, 55.85022%)" offset="0.445312"/><stop stop-opacity="1" stop-color="rgb(100%, 55.410767%, 55.410767%)" offset="0.449219"/><stop stop-opacity="1" stop-color="rgb(100%, 54.971313%, 54.971313%)" offset="0.453125"/><stop stop-opacity="1" stop-color="rgb(100%, 54.530334%, 54.530334%)" offset="0.457031"/><stop stop-opacity="1" stop-color="rgb(100%, 54.090881%, 54.090881%)" offset="0.460937"/><stop stop-opacity="1" stop-color="rgb(100%, 53.649902%, 53.649902%)" offset="0.464844"/><stop stop-opacity="1" stop-color="rgb(100%, 53.210449%, 53.210449%)" offset="0.46875"/><stop stop-opacity="1" stop-color="rgb(100%, 52.770996%, 52.770996%)" offset="0.472656"/><stop stop-opacity="1" stop-color="rgb(100%, 52.331543%, 52.331543%)" offset="0.476562"/><stop stop-opacity="1" stop-color="rgb(100%, 51.890564%, 51.890564%)" offset="0.480469"/><stop stop-opacity="1" stop-color="rgb(100%, 51.451111%, 51.451111%)" offset="0.484375"/><stop stop-opacity="1" stop-color="rgb(100%, 51.010132%, 51.010132%)" offset="0.488281"/><stop stop-opacity="1" stop-color="rgb(100%, 50.570679%, 50.570679%)" offset="0.492187"/><stop stop-opacity="1" stop-color="rgb(100%, 50.1297%, 50.1297%)" offset="0.496094"/><stop stop-opacity="1" stop-color="rgb(100%, 49.690247%, 49.690247%)" offset="0.5"/><stop stop-opacity="1" stop-color="rgb(100%, 49.250793%, 49.250793%)" offset="0.503906"/><stop stop-opacity="1" stop-color="rgb(100%, 48.81134%, 48.81134%)" offset="0.507812"/><stop stop-opacity="1" stop-color="rgb(100%, 48.370361%, 48.370361%)" offset="0.511719"/><stop stop-opacity="1" stop-color="rgb(100%, 47.930908%, 47.930908%)" offset="0.515625"/><stop stop-opacity="1" stop-color="rgb(100%, 47.489929%, 47.489929%)" offset="0.519531"/><stop stop-opacity="1" stop-color="rgb(100%, 47.050476%, 47.050476%)" offset="0.523438"/><stop stop-opacity="1" stop-color="rgb(100%, 46.609497%, 46.609497%)" offset="0.527344"/><stop stop-opacity="1" stop-color="rgb(100%, 46.170044%, 46.170044%)" offset="0.53125"/><stop stop-opacity="1" stop-color="rgb(100%, 45.730591%, 45.730591%)" offset="0.535156"/><stop stop-opacity="1" stop-color="rgb(100%, 45.291138%, 45.291138%)" offset="0.539062"/><stop stop-opacity="1" stop-color="rgb(100%, 44.850159%, 44.850159%)" offset="0.542969"/><stop stop-opacity="1" stop-color="rgb(100%, 44.410706%, 44.410706%)" offset="0.546875"/><stop stop-opacity="1" stop-color="rgb(100%, 43.969727%, 43.969727%)" offset="0.550781"/><stop stop-opacity="1" stop-color="rgb(100%, 43.530273%, 43.530273%)" offset="0.554688"/><stop stop-opacity="1" stop-color="rgb(100%, 43.09082%, 43.09082%)" offset="0.558594"/><stop stop-opacity="1" stop-color="rgb(100%, 42.651367%, 42.651367%)" offset="0.5625"/><stop stop-opacity="1" stop-color="rgb(100%, 42.210388%, 42.210388%)" offset="0.566406"/><stop stop-opacity="1" stop-color="rgb(100%, 41.770935%, 41.770935%)" offset="0.570312"/><stop stop-opacity="1" stop-color="rgb(100%, 41.329956%, 41.329956%)" offset="0.574219"/><stop stop-opacity="1" stop-color="rgb(100%, 40.890503%, 40.890503%)" offset="0.578125"/><stop stop-opacity="1" stop-color="rgb(100%, 40.449524%, 40.449524%)" offset="0.582031"/><stop stop-opacity="1" stop-color="rgb(100%, 40.010071%, 40.010071%)" offset="0.585937"/><stop stop-opacity="1" stop-color="rgb(100%, 39.570618%, 39.570618%)" offset="0.589844"/><stop stop-opacity="1" stop-color="rgb(100%, 39.131165%, 39.131165%)" offset="0.59375"/><stop stop-opacity="1" stop-color="rgb(100%, 38.690186%, 38.690186%)" offset="0.597656"/><stop stop-opacity="1" stop-color="rgb(100%, 38.250732%, 38.250732%)" offset="0.601562"/><stop stop-opacity="1" stop-color="rgb(100%, 37.809753%, 37.809753%)" offset="0.605469"/><stop stop-opacity="1" stop-color="rgb(100%, 37.3703%, 37.3703%)" offset="0.609375"/><stop stop-opacity="1" stop-color="rgb(100%, 36.930847%, 36.930847%)" offset="0.613281"/><stop stop-opacity="1" stop-color="rgb(100%, 36.491394%, 36.491394%)" offset="0.617187"/><stop stop-opacity="1" stop-color="rgb(100%, 36.050415%, 36.050415%)" offset="0.621094"/><stop stop-opacity="1" stop-color="rgb(100%, 35.610962%, 35.610962%)" offset="0.625"/><stop stop-opacity="1" stop-color="rgb(100%, 35.169983%, 35.169983%)" offset="0.628906"/><stop stop-opacity="1" stop-color="rgb(100%, 34.73053%, 34.73053%)" offset="0.632812"/><stop stop-opacity="1" stop-color="rgb(100%, 34.289551%, 34.289551%)" offset="0.636719"/><stop stop-opacity="1" stop-color="rgb(100%, 33.850098%, 33.850098%)" offset="0.640625"/><stop stop-opacity="1" stop-color="rgb(100%, 33.410645%, 33.410645%)" offset="0.644531"/><stop stop-opacity="1" stop-color="rgb(100%, 32.971191%, 32.971191%)" offset="0.648437"/><stop stop-opacity="1" stop-color="rgb(100%, 32.530212%, 32.530212%)" offset="0.652344"/><stop stop-opacity="1" stop-color="rgb(100%, 32.090759%, 32.090759%)" offset="0.65625"/><stop stop-opacity="1" stop-color="rgb(100%, 31.64978%, 31.64978%)" offset="0.660156"/><stop stop-opacity="1" stop-color="rgb(100%, 31.210327%, 31.210327%)" offset="0.664062"/><stop stop-opacity="1" stop-color="rgb(100%, 30.770874%, 30.770874%)" offset="0.667969"/><stop stop-opacity="1" stop-color="rgb(100%, 30.331421%, 30.331421%)" offset="0.671875"/><stop stop-opacity="1" stop-color="rgb(100%, 29.890442%, 29.890442%)" offset="0.675781"/><stop stop-opacity="1" stop-color="rgb(100%, 29.450989%, 29.450989%)" offset="0.679687"/><stop stop-opacity="1" stop-color="rgb(100%, 29.01001%, 29.01001%)" offset="0.683594"/><stop stop-opacity="1" stop-color="rgb(100%, 28.570557%, 28.570557%)" offset="0.6875"/><stop stop-opacity="1" stop-color="rgb(100%, 28.129578%, 28.129578%)" offset="0.691406"/><stop stop-opacity="1" stop-color="rgb(100%, 27.690125%, 27.690125%)" offset="0.695312"/><stop stop-opacity="1" stop-color="rgb(100%, 27.250671%, 27.250671%)" offset="0.699219"/><stop stop-opacity="1" stop-color="rgb(100%, 26.811218%, 26.811218%)" offset="0.703125"/><stop stop-opacity="1" stop-color="rgb(100%, 26.370239%, 26.370239%)" offset="0.707031"/><stop stop-opacity="1" stop-color="rgb(100%, 25.930786%, 25.930786%)" offset="0.710937"/><stop stop-opacity="1" stop-color="rgb(100%, 25.489807%, 25.489807%)" offset="0.714844"/><stop stop-opacity="1" stop-color="rgb(100%, 25.050354%, 25.050354%)" offset="0.71875"/><stop stop-opacity="1" stop-color="rgb(100%, 24.609375%, 24.609375%)" offset="0.722656"/><stop stop-opacity="1" stop-color="rgb(100%, 24.169922%, 24.169922%)" offset="0.726562"/><stop stop-opacity="1" stop-color="rgb(100%, 23.730469%, 23.730469%)" offset="0.730469"/><stop stop-opacity="1" stop-color="rgb(100%, 23.291016%, 23.291016%)" offset="0.734375"/><stop stop-opacity="1" stop-color="rgb(100%, 22.850037%, 22.850037%)" offset="0.738281"/><stop stop-opacity="1" stop-color="rgb(100%, 22.410583%, 22.410583%)" offset="0.742187"/><stop stop-opacity="1" stop-color="rgb(100%, 21.969604%, 21.969604%)" offset="0.746094"/><stop stop-opacity="1" stop-color="rgb(100%, 21.530151%, 21.530151%)" offset="0.75"/><stop stop-opacity="1" stop-color="rgb(100%, 21.090698%, 21.090698%)" offset="0.753906"/><stop stop-opacity="1" stop-color="rgb(100%, 20.651245%, 20.651245%)" offset="0.757812"/><stop stop-opacity="1" stop-color="rgb(100%, 20.210266%, 20.210266%)" offset="0.761719"/><stop stop-opacity="1" stop-color="rgb(100%, 19.770813%, 19.770813%)" offset="0.765625"/><stop stop-opacity="1" stop-color="rgb(100%, 19.329834%, 19.329834%)" offset="0.769531"/><stop stop-opacity="1" stop-color="rgb(100%, 18.890381%, 18.890381%)" offset="0.773437"/><stop stop-opacity="1" stop-color="rgb(100%, 18.449402%, 18.449402%)" offset="0.777344"/><stop stop-opacity="1" stop-color="rgb(100%, 18.009949%, 18.009949%)" offset="0.78125"/><stop stop-opacity="1" stop-color="rgb(100%, 17.570496%, 17.570496%)" offset="0.785156"/><stop stop-opacity="1" stop-color="rgb(100%, 17.131042%, 17.131042%)" offset="0.789062"/><stop stop-opacity="1" stop-color="rgb(100%, 16.690063%, 16.690063%)" offset="0.792969"/><stop stop-opacity="1" stop-color="rgb(100%, 16.25061%, 16.25061%)" offset="0.796875"/><stop stop-opacity="1" stop-color="rgb(100%, 15.809631%, 15.809631%)" offset="0.800781"/><stop stop-opacity="1" stop-color="rgb(100%, 15.370178%, 15.370178%)" offset="0.804687"/><stop stop-opacity="1" stop-color="rgb(100%, 14.930725%, 14.930725%)" offset="0.808594"/><stop stop-opacity="1" stop-color="rgb(100%, 14.491272%, 14.491272%)" offset="0.8125"/><stop stop-opacity="1" stop-color="rgb(100%, 14.050293%, 14.050293%)" offset="0.816406"/><stop stop-opacity="1" stop-color="rgb(100%, 13.61084%, 13.61084%)" offset="0.820313"/><stop stop-opacity="1" stop-color="rgb(100%, 13.169861%, 13.169861%)" offset="0.824219"/><stop stop-opacity="1" stop-color="rgb(100%, 12.730408%, 12.730408%)" offset="0.828125"/><stop stop-opacity="1" stop-color="rgb(100%, 12.289429%, 12.289429%)" offset="0.832031"/><stop stop-opacity="1" stop-color="rgb(100%, 11.849976%, 11.849976%)" offset="0.835938"/><stop stop-opacity="1" stop-color="rgb(100%, 11.410522%, 11.410522%)" offset="0.839844"/><stop stop-opacity="1" stop-color="rgb(100%, 10.971069%, 10.971069%)" offset="0.84375"/><stop stop-opacity="1" stop-color="rgb(100%, 10.53009%, 10.53009%)" offset="0.847656"/><stop stop-opacity="1" stop-color="rgb(100%, 10.090637%, 10.090637%)" offset="0.851563"/><stop stop-opacity="1" stop-color="rgb(100%, 9.649658%, 9.649658%)" offset="0.855469"/><stop stop-opacity="1" stop-color="rgb(100%, 9.210205%, 9.210205%)" offset="0.859375"/><stop stop-opacity="1" stop-color="rgb(100%, 8.905029%, 8.905029%)" offset="0.863281"/><stop stop-opacity="1" stop-color="rgb(100%, 8.599854%, 8.599854%)" offset="0.867188"/><stop stop-opacity="1" stop-color="rgb(100%, 8.599854%, 8.599854%)" offset="0.875"/><stop stop-opacity="1" stop-color="rgb(100%, 8.599854%, 8.599854%)" offset="0.886063"/><stop stop-opacity="1" stop-color="rgb(100%, 8.599854%, 8.599854%)" offset="1"/></linearGradient></defs><g clip-path="url(#id1)"><g clip-path="url(#id2)"><path fill="url(#id3)" d="M 74.328125 68.433594 L 74.328125 155.394531 L 148.578125 155.394531 L 148.578125 68.433594 Z M 74.328125 68.433594 " fill-rule="nonzero"/></g></g><g fill="#ff1616" fill-opacity="1"><g transform="translate(169.507744, 148.419549)"><g><path d="M 2.882812 -31.183594 C 2.496094 -31.144531 2.261719 -30.949219 2.261719 -30.519531 L 2.261719 -26.621094 C 2.261719 -26.230469 2.496094 -25.996094 2.882812 -25.996094 L 10.953125 -25.996094 L 1.246094 -0.933594 C 1.011719 -0.390625 1.207031 0 1.832031 0 L 16.996094 0 C 17.382812 -0.0390625 17.617188 -0.273438 17.617188 -0.664062 L 17.617188 -4.519531 C 17.617188 -4.949219 17.382812 -5.144531 16.996094 -5.144531 L 8.417969 -5.144531 L 18.125 -30.246094 C 18.320312 -30.792969 18.164062 -31.183594 17.539062 -31.183594 Z M 2.882812 -31.183594 "/></g></g></g><g fill="#ff1616" fill-opacity="1"><g transform="translate(191.100982, 148.419549)"><g><path d="M 7.25 -5.144531 L 14.96875 -5.144531 C 15.394531 -5.144531 15.589844 -4.910156 15.589844 -4.519531 L 15.589844 -0.625 C 15.589844 -0.195312 15.394531 0 14.96875 0 L 2.574219 0 C 2.183594 0 1.949219 -0.195312 1.949219 -0.625 L 1.949219 -26.660156 C 1.949219 -27.050781 2.183594 -27.285156 2.574219 -27.285156 L 6.625 -27.285156 C 7.054688 -27.285156 7.25 -27.050781 7.25 -26.660156 Z M 7.25 -5.144531 "/></g></g></g><g fill="#ff1616" fill-opacity="1"><g transform="translate(210.472557, 148.419549)"><g><path d="M 2.574219 0 C 2.144531 0 1.949219 -0.234375 1.949219 -0.625 L 1.949219 -26.660156 C 1.949219 -27.050781 2.144531 -27.285156 2.574219 -27.285156 L 6.625 -27.285156 C 7.015625 -27.285156 7.25 -27.050781 7.25 -26.660156 L 7.25 -0.625 C 7.25 -0.234375 7.015625 0 6.625 0 Z M 2.574219 0 "/></g></g></g><g fill="#ff1616" fill-opacity="1"><g transform="translate(221.50313, 148.419549)"><g><path d="M 1.792969 -31.183594 C 1.402344 -31.183594 1.167969 -30.949219 1.167969 -30.558594 L 1.167969 -26.660156 C 1.167969 -26.269531 1.402344 -26.035156 1.792969 -26.035156 L 6.3125 -26.035156 L 6.3125 -0.625 C 6.3125 -0.195312 6.546875 0 6.9375 0 L 10.992188 0 C 11.421875 0 11.617188 -0.195312 11.617188 -0.625 L 11.617188 -26.035156 L 16.136719 -26.035156 C 16.566406 -26.035156 16.761719 -26.269531 16.761719 -26.660156 L 16.761719 -30.558594 C 16.761719 -30.949219 16.566406 -31.183594 16.136719 -31.183594 Z M 1.792969 -31.183594 "/></g></g></g><g fill="#ff1616" fill-opacity="1"><g transform="translate(241.264466, 148.419549)"><g><path d="M 1.792969 -31.183594 C 1.402344 -31.183594 1.167969 -30.949219 1.167969 -30.558594 L 1.167969 -26.660156 C 1.167969 -26.269531 1.402344 -26.035156 1.792969 -26.035156 L 6.3125 -26.035156 L 6.3125 -0.625 C 6.3125 -0.195312 6.546875 0 6.9375 0 L 10.992188 0 C 11.421875 0 11.617188 -0.195312 11.617188 -0.625 L 11.617188 -26.035156 L 16.136719 -26.035156 C 16.566406 -26.035156 16.761719 -26.269531 16.761719 -26.660156 L 16.761719 -30.558594 C 16.761719 -30.949219 16.566406 -31.183594 16.136719 -31.183594 Z M 1.792969 -31.183594 "/></g></g></g><g fill="#ff1616" fill-opacity="1"><g transform="translate(261.025803, 148.419549)"><g><path d="M 17.5 -30.558594 C 17.5 -30.949219 17.34375 -31.183594 16.878906 -31.183594 L 2.535156 -31.183594 C 2.183594 -31.183594 1.949219 -30.949219 1.949219 -30.558594 L 1.949219 -0.625 C 1.949219 -0.234375 2.183594 0 2.535156 0 L 16.878906 0 C 17.34375 0 17.5 -0.234375 17.5 -0.625 L 17.5 -4.519531 C 17.5 -4.949219 17.34375 -5.144531 16.878906 -5.144531 L 7.132812 -5.144531 L 7.132812 -13.019531 L 14.578125 -13.019531 C 14.96875 -13.019531 15.203125 -13.253906 15.203125 -13.679688 L 15.203125 -17.539062 C 15.203125 -17.96875 14.96875 -18.203125 14.578125 -18.203125 L 7.132812 -18.203125 L 7.132812 -25.996094 L 16.878906 -25.996094 C 17.34375 -25.996094 17.5 -26.269531 17.5 -26.660156 Z M 17.5 -30.558594 "/></g></g></g><g fill="#ff1616" fill-opacity="1"><g transform="translate(282.307229, 148.419549)"><g><path d="M 17.96875 -25.570312 C 17.96875 -29.234375 16.019531 -31.183594 12.355469 -31.183594 L 2.574219 -31.183594 C 2.183594 -31.183594 1.949219 -30.949219 1.949219 -30.558594 L 1.949219 -0.625 C 1.949219 -0.234375 2.183594 0 2.574219 0 L 6.625 0 C 7.015625 0 7.25 -0.234375 7.25 -0.625 L 7.25 -10.445312 L 9.9375 -10.445312 L 12.550781 -0.546875 C 12.628906 -0.195312 12.824219 0 13.214844 0 L 17.265625 0 C 17.695312 0 17.929688 -0.234375 17.8125 -0.703125 L 15.125 -10.914062 C 16.996094 -11.730469 17.96875 -13.445312 17.96875 -16.058594 Z M 7.25 -15.589844 L 7.25 -26.035156 L 11.109375 -26.035156 C 12.121094 -26.035156 12.667969 -25.492188 12.667969 -24.476562 L 12.667969 -17.148438 C 12.667969 -16.136719 12.121094 -15.589844 11.109375 -15.589844 Z M 7.25 -15.589844 "/></g></g></g><g fill="#ff1616" fill-opacity="1"><g transform="translate(304.05637, 148.419549)"><g><path d="M 3.195312 -27.285156 C 2.804688 -27.246094 2.574219 -27.050781 2.574219 -26.621094 L 2.574219 -22.761719 C 2.574219 -22.375 2.804688 -22.140625 3.195312 -22.140625 L 11.226562 -22.140625 L 1.285156 -0.933594 C 1.011719 -0.390625 1.246094 0 1.871094 0 L 17.148438 0 C 17.539062 -0.0390625 17.773438 -0.273438 17.773438 -0.664062 L 17.773438 -4.171875 C 17.773438 -4.597656 17.539062 -4.792969 17.148438 -4.792969 L 8.613281 -4.792969 L 18.554688 -26.347656 C 18.824219 -26.894531 18.59375 -27.285156 17.96875 -27.285156 Z M 3.195312 -27.285156 "/></g></g></g><g fill="#ffffff" fill-opacity="1"><g transform="translate(176.566957, 97.006172)"><g><path d="M 1.003906 -17.460938 C 0.785156 -17.460938 0.65625 -17.328125 0.65625 -17.109375 L 0.65625 -14.929688 C 0.65625 -14.710938 0.785156 -14.578125 1.003906 -14.578125 L 3.535156 -14.578125 L 3.535156 -0.347656 C 3.535156 -0.109375 3.667969 0 3.886719 0 L 6.15625 0 C 6.394531 0 6.503906 -0.109375 6.503906 -0.347656 L 6.503906 -14.578125 L 9.035156 -14.578125 C 9.277344 -14.578125 9.382812 -14.710938 9.382812 -14.929688 L 9.382812 -17.109375 C 9.382812 -17.328125 9.277344 -17.460938 9.035156 -17.460938 Z M 1.003906 -17.460938 "/></g></g></g><g fill="#ffffff" fill-opacity="1"><g transform="translate(191.187655, 97.006172)"><g><path d="M 9.800781 -14.929688 C 9.800781 -15.148438 9.710938 -15.277344 9.449219 -15.277344 L 1.417969 -15.277344 C 1.222656 -15.277344 1.089844 -15.148438 1.089844 -14.929688 L 1.089844 -0.347656 C 1.089844 -0.132812 1.222656 0 1.417969 0 L 9.449219 0 C 9.710938 0 9.800781 -0.132812 9.800781 -0.347656 L 9.800781 -2.53125 C 9.800781 -2.773438 9.710938 -2.882812 9.449219 -2.882812 L 4.058594 -2.882812 L 4.058594 -6.109375 L 8.164062 -6.109375 C 8.378906 -6.109375 8.511719 -6.242188 8.511719 -6.480469 L 8.511719 -8.644531 C 8.511719 -8.882812 8.378906 -9.015625 8.164062 -9.015625 L 4.058594 -9.015625 L 4.058594 -12.375 L 9.449219 -12.375 C 9.710938 -12.375 9.800781 -12.527344 9.800781 -12.746094 Z M 9.800781 -14.929688 "/></g></g></g><g fill="#ffffff" fill-opacity="1"><g transform="translate(206.659346, 97.006172)"><g><path d="M 11.394531 0 C 11.65625 0 11.765625 -0.132812 11.699219 -0.371094 L 8.074219 -14.972656 C 8.03125 -15.191406 7.902344 -15.277344 7.703125 -15.277344 L 4.671875 -15.277344 C 4.472656 -15.277344 4.34375 -15.191406 4.300781 -14.972656 L 0.675781 -0.371094 C 0.609375 -0.132812 0.71875 0 0.960938 0 L 3.097656 0 C 3.296875 0 3.40625 -0.109375 3.449219 -0.304688 L 4.125 -3.054688 L 8.226562 -3.054688 L 8.925781 -0.304688 C 8.96875 -0.109375 9.078125 0 9.277344 0 Z M 7.550781 -5.585938 L 4.800781 -5.585938 L 6.175781 -11.523438 Z M 7.550781 -5.585938 "/></g></g></g><g fill="#ffffff" fill-opacity="1"><g transform="translate(223.614823, 97.006172)"><g><path d="M 10.214844 -15.277344 C 9.953125 -15.277344 9.800781 -15.148438 9.734375 -14.90625 L 7.3125 -5.171875 L 4.890625 -14.90625 C 4.824219 -15.148438 4.671875 -15.277344 4.410156 -15.277344 L 1.527344 -15.277344 C 1.242188 -15.277344 1.089844 -15.125 1.089844 -14.839844 L 1.089844 -0.4375 C 1.089844 -0.152344 1.242188 0 1.527344 0 L 3.535156 0 C 3.820312 0 3.972656 -0.152344 3.972656 -0.4375 L 3.972656 -9.015625 L 4.125 -9.015625 L 6.175781 -0.371094 C 6.242188 -0.132812 6.394531 0 6.65625 0 L 7.945312 0 C 8.207031 0 8.359375 -0.132812 8.425781 -0.371094 L 10.476562 -9.015625 L 10.628906 -9.015625 L 10.628906 -0.4375 C 10.628906 -0.152344 10.78125 0 11.066406 0 L 13.09375 0 C 13.378906 0 13.53125 -0.152344 13.53125 -0.4375 L 13.53125 -14.839844 C 13.53125 -15.125 13.378906 -15.277344 13.09375 -15.277344 Z M 10.214844 -15.277344 "/></g></g></g></svg>