<svg xmlns="http://www.w3.org/2000/svg" xmlns:xlink="http://www.w3.org/1999/xlink" width="500" zoomAndPan="magnify" viewBox="0 0 375 374.999991" height="500" preserveAspectRatio="xMidYMid meet" version="1.0"><defs><g/><clipPath id="id1"><path d="M 60.066406 143.832031 L 134.316406 143.832031 L 134.316406 230.832031 L 60.066406 230.832031 Z M 60.066406 143.832031 " clip-rule="nonzero"/></clipPath><clipPath id="id2"><path d="M 104.910156 157.289062 C 104.832031 156.085938 105.085938 154.910156 105.613281 153.871094 C 106.144531 152.828125 106.949219 151.925781 107.96875 151.269531 C 108.988281 150.617188 110.152344 150.265625 111.328125 150.222656 C 112.5 150.175781 113.683594 150.4375 114.75 151.007812 C 115.816406 151.578125 116.6875 152.421875 117.300781 153.421875 C 117.910156 154.417969 118.253906 155.574219 118.273438 156.78125 C 118.285156 157.660156 117.574219 158.382812 116.691406 158.394531 C 115.808594 158.40625 115.082031 157.699219 115.070312 156.820312 C 115.0625 156.191406 114.882812 155.589844 114.566406 155.074219 C 114.25 154.558594 113.800781 154.125 113.238281 153.824219 C 112.679688 153.523438 112.058594 153.390625 111.449219 153.410156 C 110.84375 153.429688 110.246094 153.613281 109.710938 153.957031 C 109.179688 154.296875 108.757812 154.769531 108.484375 155.308594 C 108.210938 155.847656 108.082031 156.464844 108.117188 157.097656 C 108.175781 157.976562 107.503906 158.734375 106.617188 158.785156 C 105.734375 158.84375 104.972656 158.175781 104.914062 157.296875 Z M 88.101562 224.777344 L 108.234375 224.777344 L 108.234375 227.546875 L 100.53125 227.546875 C 100.53125 229.34375 99.070312 230.792969 97.273438 230.792969 C 95.476562 230.792969 94.015625 229.335938 94.015625 227.546875 L 88.101562 227.546875 Z M 83.574219 219.785156 L 112.753906 219.785156 L 112.753906 222.558594 L 83.574219 222.558594 Z M 125.042969 171.222656 C 126.257812 171.746094 127.199219 172.664062 127.765625 173.777344 C 128.328125 174.886719 128.511719 176.183594 128.214844 177.464844 C 127.914062 178.746094 127.171875 179.828125 126.167969 180.582031 C 125.167969 181.328125 123.917969 181.738281 122.597656 181.667969 C 121.714844 181.621094 121.03125 180.875 121.082031 179.996094 C 121.128906 179.117188 121.878906 178.4375 122.761719 178.484375 C 123.3125 178.507812 123.835938 178.34375 124.246094 178.035156 C 124.65625 177.726562 124.960938 177.273438 125.082031 176.742188 C 125.207031 176.207031 125.132812 175.667969 124.894531 175.214844 C 124.664062 174.757812 124.277344 174.378906 123.765625 174.164062 C 122.953125 173.8125 122.574219 172.875 122.925781 172.066406 C 123.277344 171.253906 124.21875 170.878906 125.03125 171.230469 Z M 83.574219 216.972656 L 112.753906 216.972656 L 112.753906 206.382812 C 112.910156 206.339844 113.070312 206.292969 113.222656 206.242188 C 115.828125 205.410156 118.152344 203.714844 119.738281 201.308594 C 120.632812 199.949219 121.226562 198.464844 121.523438 196.945312 C 122.515625 196.832031 123.476562 196.550781 124.367188 196.113281 C 125.695312 195.464844 126.855469 194.476562 127.71875 193.21875 C 128.582031 191.957031 129.082031 190.519531 129.203125 189.054688 C 129.28125 188.082031 129.191406 187.097656 128.9375 186.140625 C 129.648438 185.707031 130.300781 185.195312 130.894531 184.617188 C 132.65625 182.902344 133.859375 180.621094 134.210938 178.066406 C 134.5625 175.507812 134.023438 172.992188 132.785156 170.875 C 132.445312 170.28125 132.046875 169.726562 131.605469 169.203125 C 132.09375 168.023438 132.359375 166.773438 132.402344 165.507812 C 132.457031 163.859375 132.125 162.203125 131.398438 160.667969 C 130.671875 159.136719 129.601562 157.824219 128.285156 156.816406 C 127.28125 156.039062 126.136719 155.445312 124.902344 155.074219 C 124.582031 153.273438 123.886719 151.527344 122.832031 149.945312 C 121.265625 147.605469 119.054688 145.863281 116.550781 144.859375 C 114.046875 143.855469 111.246094 143.59375 108.492188 144.199219 C 105.730469 144.804688 103.300781 146.226562 101.457031 148.191406 C 100.183594 149.542969 99.1875 151.160156 98.550781 152.949219 C 97.667969 155.445312 97.910156 156.882812 97.910156 159.535156 L 97.910156 214.199219 L 94.1875 214.199219 L 94.1875 145.464844 C 79.183594 144.8125 65.347656 154.660156 67.089844 170.722656 C 67.421875 172.964844 66.875 174.988281 65.460938 176.792969 L 60.488281 183.101562 C 60.035156 183.777344 59.945312 184.628906 60.246094 185.378906 C 60.542969 186.128906 61.195312 186.683594 61.992188 186.871094 C 64.082031 187.246094 64.730469 188.242188 63.925781 189.871094 C 62.722656 191.097656 62.398438 191.992188 62.960938 192.554688 C 63.324219 192.949219 63.332031 193.550781 62.980469 193.953125 C 62.625 194.429688 62.785156 194.96875 63.453125 195.566406 C 64.59375 197.023438 64.835938 198.667969 64.183594 200.496094 C 63.777344 201.503906 63.832031 202.632812 64.328125 203.59375 C 64.828125 204.554688 65.726562 205.253906 66.785156 205.496094 C 68.519531 205.855469 70.296875 206.042969 72.097656 206.0625 C 77.320312 206.113281 81.144531 209.75 83.578125 216.96875 Z M 109.535156 214.199219 L 101.117188 214.199219 L 101.117188 191.585938 C 102.371094 192.109375 103.800781 192.203125 105.179688 191.753906 C 106.601562 191.289062 107.734375 190.324219 108.433594 189.113281 C 109.125 187.902344 109.382812 186.445312 109.0625 184.996094 C 108.875 184.132812 108.015625 183.589844 107.148438 183.777344 C 106.28125 183.964844 105.734375 184.816406 105.925781 185.679688 C 106.066406 186.335938 105.957031 186.992188 105.640625 187.53125 C 105.332031 188.070312 104.828125 188.5 104.183594 188.707031 C 103.542969 188.917969 102.875 188.871094 102.304688 188.613281 C 101.816406 188.398438 101.398438 188.035156 101.117188 187.554688 L 101.117188 167.703125 C 101.316406 167.320312 101.625 167.023438 101.988281 166.832031 C 102.429688 166.601562 102.957031 166.515625 103.46875 166.640625 C 103.984375 166.769531 104.417969 167.070312 104.699219 167.472656 C 104.984375 167.875 105.121094 168.382812 105.0625 168.914062 C 104.964844 169.785156 105.59375 170.582031 106.476562 170.679688 C 107.359375 170.78125 108.152344 170.152344 108.253906 169.273438 C 108.40625 167.949219 108.050781 166.671875 107.328125 165.648438 C 106.609375 164.625 105.527344 163.855469 104.226562 163.539062 L 104.222656 163.539062 C 103.15625 163.285156 102.082031 163.367188 101.121094 163.730469 L 101.121094 159.363281 C 101.121094 156.882812 100.882812 155.324219 101.988281 153 C 102.457031 152.023438 103.066406 151.128906 103.800781 150.351562 C 105.214844 148.847656 107.070312 147.761719 109.179688 147.296875 C 111.285156 146.828125 113.4375 147.035156 115.355469 147.808594 C 117.269531 148.578125 118.957031 149.90625 120.15625 151.695312 C 121.351562 153.488281 121.9375 155.558594 121.910156 157.613281 C 121.882812 159.664062 121.238281 161.714844 119.992188 163.472656 C 119.480469 164.195312 119.65625 165.1875 120.382812 165.695312 C 121.105469 166.203125 122.109375 166.03125 122.613281 165.308594 C 124.0625 163.273438 124.878906 160.9375 125.070312 158.546875 C 125.515625 158.765625 125.9375 159.027344 126.328125 159.324219 C 127.234375 160.027344 127.988281 160.945312 128.492188 162.019531 C 128.996094 163.089844 129.234375 164.246094 129.195312 165.398438 C 129.179688 165.914062 129.105469 166.433594 128.980469 166.941406 C 128.429688 166.601562 127.84375 166.300781 127.226562 166.050781 C 126.40625 165.714844 125.46875 166.113281 125.132812 166.929688 C 124.800781 167.746094 125.195312 168.675781 126.015625 169.011719 C 127.746094 169.707031 129.121094 170.945312 130.007812 172.464844 C 130.890625 173.984375 131.277344 175.789062 131.027344 177.632812 C 130.773438 179.46875 129.910156 181.097656 128.648438 182.324219 C 127.386719 183.550781 125.726562 184.371094 123.875 184.582031 C 123 184.679688 122.367188 185.476562 122.46875 186.351562 C 122.566406 187.222656 123.355469 187.847656 124.230469 187.757812 C 124.808594 187.6875 125.378906 187.578125 125.925781 187.433594 C 126.003906 187.882812 126.027344 188.34375 125.988281 188.796875 C 125.917969 189.730469 125.601562 190.632812 125.066406 191.421875 C 124.523438 192.21875 123.792969 192.835938 122.957031 193.25 C 122.5625 193.441406 122.140625 193.589844 121.707031 193.683594 C 121.695312 193.589844 121.691406 193.496094 121.679688 193.398438 C 121.40625 190.691406 120.230469 188.074219 118.1875 186.027344 C 117.5625 185.402344 116.550781 185.398438 115.921875 186.019531 C 115.292969 186.644531 115.292969 187.648438 115.917969 188.273438 C 117.421875 189.785156 118.289062 191.714844 118.488281 193.707031 C 118.6875 195.707031 118.21875 197.773438 117.046875 199.554688 C 115.875 201.339844 114.164062 202.589844 112.238281 203.203125 C 110.320312 203.8125 108.1875 203.792969 106.191406 203.023438 C 105.367188 202.703125 104.4375 203.113281 104.121094 203.933594 C 103.800781 204.753906 104.210938 205.675781 105.035156 205.996094 C 106.507812 206.558594 108.027344 206.828125 109.53125 206.820312 L 109.53125 214.195312 Z M 107.109375 195.796875 C 106.460938 195.195312 105.445312 195.230469 104.84375 195.875 C 104.238281 196.515625 104.273438 197.53125 104.925781 198.128906 C 106.035156 199.160156 107.449219 199.703125 108.878906 199.75 C 110.304688 199.796875 111.75 199.347656 112.925781 198.390625 C 114.109375 197.433594 114.847656 196.113281 115.085938 194.714844 C 115.328125 193.320312 115.078125 191.835938 114.289062 190.539062 C 113.832031 189.785156 112.847656 189.546875 112.089844 190 C 111.335938 190.457031 111.09375 191.433594 111.550781 192.1875 C 111.921875 192.796875 112.039062 193.503906 111.921875 194.175781 C 111.808594 194.839844 111.460938 195.460938 110.902344 195.910156 C 110.347656 196.367188 109.65625 196.574219 108.980469 196.554688 C 108.304688 196.535156 107.640625 196.273438 107.109375 195.785156 Z M 118.929688 176.230469 C 118.117188 175.878906 117.175781 176.246094 116.820312 177.054688 C 116.355469 178.121094 115.539062 178.949219 114.554688 179.445312 C 113.570312 179.941406 112.417969 180.105469 111.269531 179.847656 C 110.128906 179.59375 109.164062 178.949219 108.484375 178.082031 C 107.8125 177.210938 107.429688 176.113281 107.46875 174.949219 C 107.496094 174.070312 106.804688 173.332031 105.921875 173.304688 C 105.035156 173.28125 104.296875 173.96875 104.269531 174.847656 C 104.207031 176.773438 104.832031 178.59375 105.953125 180.03125 C 107.070312 181.46875 108.679688 182.535156 110.570312 182.960938 C 112.464844 183.382812 114.371094 183.117188 116.003906 182.296875 C 117.636719 181.476562 118.988281 180.105469 119.765625 178.332031 C 120.117188 177.527344 119.75 176.585938 118.933594 176.234375 Z M 112.160156 172.109375 C 111.320312 172.386719 110.867188 173.289062 111.148438 174.125 C 111.429688 174.964844 112.339844 175.414062 113.179688 175.132812 C 114.898438 174.554688 116.261719 173.390625 117.101562 171.929688 C 117.941406 170.472656 118.261719 168.71875 117.898438 166.957031 C 117.539062 165.195312 116.542969 163.707031 115.1875 162.699219 C 113.832031 161.683594 112.121094 161.144531 110.324219 161.285156 C 109.441406 161.355469 108.78125 162.125 108.847656 163.003906 C 108.917969 163.878906 109.6875 164.539062 110.570312 164.472656 C 111.570312 164.394531 112.515625 164.6875 113.261719 165.246094 C 114.011719 165.804688 114.558594 166.621094 114.757812 167.59375 C 114.957031 168.5625 114.777344 169.535156 114.308594 170.34375 C 113.839844 171.152344 113.09375 171.792969 112.160156 172.109375 Z M 112.160156 172.109375 " clip-rule="evenodd"/></clipPath><linearGradient x1="115.641931" gradientTransform="matrix(0.525664, 0, 0, 0.523027, 60.066344, 143.869617)" y1="-3.95071" x2="87.876113" gradientUnits="userSpaceOnUse" y2="179.490955" id="id3"><stop stop-opacity="1" stop-color="rgb(100%, 100%, 100%)" offset="0"/><stop stop-opacity="1" stop-color="rgb(100%, 100%, 100%)" offset="0.03125"/><stop stop-opacity="1" stop-color="rgb(100%, 100%, 100%)" offset="0.046875"/><stop stop-opacity="1" stop-color="rgb(100%, 99.925232%, 99.925232%)" offset="0.0546875"/><stop stop-opacity="1" stop-color="rgb(100%, 99.411011%, 99.411011%)" offset="0.0585938"/><stop stop-opacity="1" stop-color="rgb(100%, 98.971558%, 98.971558%)" offset="0.0625"/><stop stop-opacity="1" stop-color="rgb(100%, 98.530579%, 98.530579%)" offset="0.0664062"/><stop stop-opacity="1" stop-color="rgb(100%, 98.091125%, 98.091125%)" offset="0.0703125"/><stop stop-opacity="1" stop-color="rgb(100%, 97.650146%, 97.650146%)" offset="0.0742188"/><stop stop-opacity="1" stop-color="rgb(100%, 97.210693%, 97.210693%)" offset="0.078125"/><stop stop-opacity="1" stop-color="rgb(100%, 96.77124%, 96.77124%)" offset="0.0820313"/><stop stop-opacity="1" stop-color="rgb(100%, 96.331787%, 96.331787%)" offset="0.0859375"/><stop stop-opacity="1" stop-color="rgb(100%, 95.890808%, 95.890808%)" offset="0.0898438"/><stop stop-opacity="1" stop-color="rgb(100%, 95.451355%, 95.451355%)" offset="0.09375"/><stop stop-opacity="1" stop-color="rgb(100%, 95.010376%, 95.010376%)" offset="0.0976563"/><stop stop-opacity="1" stop-color="rgb(100%, 94.570923%, 94.570923%)" offset="0.101563"/><stop stop-opacity="1" stop-color="rgb(100%, 94.129944%, 94.129944%)" offset="0.105469"/><stop stop-opacity="1" stop-color="rgb(100%, 93.690491%, 93.690491%)" offset="0.109375"/><stop stop-opacity="1" stop-color="rgb(100%, 93.251038%, 93.251038%)" offset="0.113281"/><stop stop-opacity="1" stop-color="rgb(100%, 92.811584%, 92.811584%)" offset="0.117188"/><stop stop-opacity="1" stop-color="rgb(100%, 92.370605%, 92.370605%)" offset="0.121094"/><stop stop-opacity="1" stop-color="rgb(100%, 91.931152%, 91.931152%)" offset="0.125"/><stop stop-opacity="1" stop-color="rgb(100%, 91.490173%, 91.490173%)" offset="0.128906"/><stop stop-opacity="1" stop-color="rgb(100%, 91.05072%, 91.05072%)" offset="0.132812"/><stop stop-opacity="1" stop-color="rgb(100%, 90.609741%, 90.609741%)" offset="0.136719"/><stop stop-opacity="1" stop-color="rgb(100%, 90.170288%, 90.170288%)" offset="0.140625"/><stop stop-opacity="1" stop-color="rgb(100%, 89.730835%, 89.730835%)" offset="0.144531"/><stop stop-opacity="1" stop-color="rgb(100%, 89.291382%, 89.291382%)" offset="0.148438"/><stop stop-opacity="1" stop-color="rgb(100%, 88.850403%, 88.850403%)" offset="0.152344"/><stop stop-opacity="1" stop-color="rgb(100%, 88.41095%, 88.41095%)" offset="0.15625"/><stop stop-opacity="1" stop-color="rgb(100%, 87.969971%, 87.969971%)" offset="0.160156"/><stop stop-opacity="1" stop-color="rgb(100%, 87.530518%, 87.530518%)" offset="0.164062"/><stop stop-opacity="1" stop-color="rgb(100%, 87.091064%, 87.091064%)" offset="0.167969"/><stop stop-opacity="1" stop-color="rgb(100%, 86.651611%, 86.651611%)" offset="0.171875"/><stop stop-opacity="1" stop-color="rgb(100%, 86.210632%, 86.210632%)" offset="0.175781"/><stop stop-opacity="1" stop-color="rgb(100%, 85.771179%, 85.771179%)" offset="0.179688"/><stop stop-opacity="1" stop-color="rgb(100%, 85.3302%, 85.3302%)" offset="0.183594"/><stop stop-opacity="1" stop-color="rgb(100%, 84.890747%, 84.890747%)" offset="0.1875"/><stop stop-opacity="1" stop-color="rgb(100%, 84.449768%, 84.449768%)" offset="0.191406"/><stop stop-opacity="1" stop-color="rgb(100%, 84.010315%, 84.010315%)" offset="0.195313"/><stop stop-opacity="1" stop-color="rgb(100%, 83.570862%, 83.570862%)" offset="0.199219"/><stop stop-opacity="1" stop-color="rgb(100%, 83.131409%, 83.131409%)" offset="0.203125"/><stop stop-opacity="1" stop-color="rgb(100%, 82.69043%, 82.69043%)" offset="0.207031"/><stop stop-opacity="1" stop-color="rgb(100%, 82.250977%, 82.250977%)" offset="0.210938"/><stop stop-opacity="1" stop-color="rgb(100%, 81.809998%, 81.809998%)" offset="0.214844"/><stop stop-opacity="1" stop-color="rgb(100%, 81.370544%, 81.370544%)" offset="0.21875"/><stop stop-opacity="1" stop-color="rgb(100%, 80.931091%, 80.931091%)" offset="0.222656"/><stop stop-opacity="1" stop-color="rgb(100%, 80.491638%, 80.491638%)" offset="0.226563"/><stop stop-opacity="1" stop-color="rgb(100%, 80.050659%, 80.050659%)" offset="0.230469"/><stop stop-opacity="1" stop-color="rgb(100%, 79.611206%, 79.611206%)" offset="0.234375"/><stop stop-opacity="1" stop-color="rgb(100%, 79.170227%, 79.170227%)" offset="0.238281"/><stop stop-opacity="1" stop-color="rgb(100%, 78.730774%, 78.730774%)" offset="0.242188"/><stop stop-opacity="1" stop-color="rgb(100%, 78.289795%, 78.289795%)" offset="0.246094"/><stop stop-opacity="1" stop-color="rgb(100%, 77.850342%, 77.850342%)" offset="0.25"/><stop stop-opacity="1" stop-color="rgb(100%, 77.410889%, 77.410889%)" offset="0.253906"/><stop stop-opacity="1" stop-color="rgb(100%, 76.971436%, 76.971436%)" offset="0.257812"/><stop stop-opacity="1" stop-color="rgb(100%, 76.530457%, 76.530457%)" offset="0.261719"/><stop stop-opacity="1" stop-color="rgb(100%, 76.091003%, 76.091003%)" offset="0.265625"/><stop stop-opacity="1" stop-color="rgb(100%, 75.650024%, 75.650024%)" offset="0.269531"/><stop stop-opacity="1" stop-color="rgb(100%, 75.210571%, 75.210571%)" offset="0.273438"/><stop stop-opacity="1" stop-color="rgb(100%, 74.771118%, 74.771118%)" offset="0.277344"/><stop stop-opacity="1" stop-color="rgb(100%, 74.331665%, 74.331665%)" offset="0.28125"/><stop stop-opacity="1" stop-color="rgb(100%, 73.890686%, 73.890686%)" offset="0.285156"/><stop stop-opacity="1" stop-color="rgb(100%, 73.451233%, 73.451233%)" offset="0.289062"/><stop stop-opacity="1" stop-color="rgb(100%, 73.010254%, 73.010254%)" offset="0.292969"/><stop stop-opacity="1" stop-color="rgb(100%, 72.570801%, 72.570801%)" offset="0.296875"/><stop stop-opacity="1" stop-color="rgb(100%, 72.129822%, 72.129822%)" offset="0.300781"/><stop stop-opacity="1" stop-color="rgb(100%, 71.690369%, 71.690369%)" offset="0.304688"/><stop stop-opacity="1" stop-color="rgb(100%, 71.250916%, 71.250916%)" offset="0.308594"/><stop stop-opacity="1" stop-color="rgb(100%, 70.811462%, 70.811462%)" offset="0.3125"/><stop stop-opacity="1" stop-color="rgb(100%, 70.370483%, 70.370483%)" offset="0.316406"/><stop stop-opacity="1" stop-color="rgb(100%, 69.93103%, 69.93103%)" offset="0.320313"/><stop stop-opacity="1" stop-color="rgb(100%, 69.490051%, 69.490051%)" offset="0.324219"/><stop stop-opacity="1" stop-color="rgb(100%, 69.050598%, 69.050598%)" offset="0.328125"/><stop stop-opacity="1" stop-color="rgb(100%, 68.609619%, 68.609619%)" offset="0.332031"/><stop stop-opacity="1" stop-color="rgb(100%, 68.170166%, 68.170166%)" offset="0.335938"/><stop stop-opacity="1" stop-color="rgb(100%, 67.730713%, 67.730713%)" offset="0.339844"/><stop stop-opacity="1" stop-color="rgb(100%, 67.29126%, 67.29126%)" offset="0.34375"/><stop stop-opacity="1" stop-color="rgb(100%, 66.850281%, 66.850281%)" offset="0.347656"/><stop stop-opacity="1" stop-color="rgb(100%, 66.410828%, 66.410828%)" offset="0.351563"/><stop stop-opacity="1" stop-color="rgb(100%, 65.969849%, 65.969849%)" offset="0.355469"/><stop stop-opacity="1" stop-color="rgb(100%, 65.530396%, 65.530396%)" offset="0.359375"/><stop stop-opacity="1" stop-color="rgb(100%, 65.090942%, 65.090942%)" offset="0.363281"/><stop stop-opacity="1" stop-color="rgb(100%, 64.651489%, 64.651489%)" offset="0.367188"/><stop stop-opacity="1" stop-color="rgb(100%, 64.21051%, 64.21051%)" offset="0.371094"/><stop stop-opacity="1" stop-color="rgb(100%, 63.771057%, 63.771057%)" offset="0.375"/><stop stop-opacity="1" stop-color="rgb(100%, 63.330078%, 63.330078%)" offset="0.378906"/><stop stop-opacity="1" stop-color="rgb(100%, 62.890625%, 62.890625%)" offset="0.382812"/><stop stop-opacity="1" stop-color="rgb(100%, 62.449646%, 62.449646%)" offset="0.386719"/><stop stop-opacity="1" stop-color="rgb(100%, 62.010193%, 62.010193%)" offset="0.390625"/><stop stop-opacity="1" stop-color="rgb(100%, 61.57074%, 61.57074%)" offset="0.394531"/><stop stop-opacity="1" stop-color="rgb(100%, 61.131287%, 61.131287%)" offset="0.398438"/><stop stop-opacity="1" stop-color="rgb(100%, 60.690308%, 60.690308%)" offset="0.402344"/><stop stop-opacity="1" stop-color="rgb(100%, 60.250854%, 60.250854%)" offset="0.40625"/><stop stop-opacity="1" stop-color="rgb(100%, 59.809875%, 59.809875%)" offset="0.410156"/><stop stop-opacity="1" stop-color="rgb(100%, 59.370422%, 59.370422%)" offset="0.414063"/><stop stop-opacity="1" stop-color="rgb(100%, 58.930969%, 58.930969%)" offset="0.417969"/><stop stop-opacity="1" stop-color="rgb(100%, 58.491516%, 58.491516%)" offset="0.421875"/><stop stop-opacity="1" stop-color="rgb(100%, 58.050537%, 58.050537%)" offset="0.425781"/><stop stop-opacity="1" stop-color="rgb(100%, 57.611084%, 57.611084%)" offset="0.429688"/><stop stop-opacity="1" stop-color="rgb(100%, 57.170105%, 57.170105%)" offset="0.433594"/><stop stop-opacity="1" stop-color="rgb(100%, 56.730652%, 56.730652%)" offset="0.4375"/><stop stop-opacity="1" stop-color="rgb(100%, 56.289673%, 56.289673%)" offset="0.441406"/><stop stop-opacity="1" stop-color="rgb(100%, 55.85022%, 55.85022%)" offset="0.445313"/><stop stop-opacity="1" stop-color="rgb(100%, 55.410767%, 55.410767%)" offset="0.449219"/><stop stop-opacity="1" stop-color="rgb(100%, 54.971313%, 54.971313%)" offset="0.453125"/><stop stop-opacity="1" stop-color="rgb(100%, 54.530334%, 54.530334%)" offset="0.457031"/><stop stop-opacity="1" stop-color="rgb(100%, 54.090881%, 54.090881%)" offset="0.460938"/><stop stop-opacity="1" stop-color="rgb(100%, 53.649902%, 53.649902%)" offset="0.464844"/><stop stop-opacity="1" stop-color="rgb(100%, 53.210449%, 53.210449%)" offset="0.46875"/><stop stop-opacity="1" stop-color="rgb(100%, 52.770996%, 52.770996%)" offset="0.472656"/><stop stop-opacity="1" stop-color="rgb(100%, 52.331543%, 52.331543%)" offset="0.476563"/><stop stop-opacity="1" stop-color="rgb(100%, 51.890564%, 51.890564%)" offset="0.480469"/><stop stop-opacity="1" stop-color="rgb(100%, 51.451111%, 51.451111%)" offset="0.484375"/><stop stop-opacity="1" stop-color="rgb(100%, 51.010132%, 51.010132%)" offset="0.488281"/><stop stop-opacity="1" stop-color="rgb(100%, 50.570679%, 50.570679%)" offset="0.492188"/><stop stop-opacity="1" stop-color="rgb(100%, 50.1297%, 50.1297%)" offset="0.496094"/><stop stop-opacity="1" stop-color="rgb(100%, 49.690247%, 49.690247%)" offset="0.5"/><stop stop-opacity="1" stop-color="rgb(100%, 49.250793%, 49.250793%)" offset="0.503906"/><stop stop-opacity="1" stop-color="rgb(100%, 48.81134%, 48.81134%)" offset="0.507813"/><stop stop-opacity="1" stop-color="rgb(100%, 48.370361%, 48.370361%)" offset="0.511719"/><stop stop-opacity="1" stop-color="rgb(100%, 47.930908%, 47.930908%)" offset="0.515625"/><stop stop-opacity="1" stop-color="rgb(100%, 47.489929%, 47.489929%)" offset="0.519531"/><stop stop-opacity="1" stop-color="rgb(100%, 47.050476%, 47.050476%)" offset="0.523438"/><stop stop-opacity="1" stop-color="rgb(100%, 46.609497%, 46.609497%)" offset="0.527344"/><stop stop-opacity="1" stop-color="rgb(100%, 46.170044%, 46.170044%)" offset="0.53125"/><stop stop-opacity="1" stop-color="rgb(100%, 45.730591%, 45.730591%)" offset="0.535156"/><stop stop-opacity="1" stop-color="rgb(100%, 45.291138%, 45.291138%)" offset="0.539063"/><stop stop-opacity="1" stop-color="rgb(100%, 44.850159%, 44.850159%)" offset="0.542969"/><stop stop-opacity="1" stop-color="rgb(100%, 44.410706%, 44.410706%)" offset="0.546875"/><stop stop-opacity="1" stop-color="rgb(100%, 43.969727%, 43.969727%)" offset="0.550781"/><stop stop-opacity="1" stop-color="rgb(100%, 43.530273%, 43.530273%)" offset="0.554688"/><stop stop-opacity="1" stop-color="rgb(100%, 43.09082%, 43.09082%)" offset="0.558594"/><stop stop-opacity="1" stop-color="rgb(100%, 42.651367%, 42.651367%)" offset="0.5625"/><stop stop-opacity="1" stop-color="rgb(100%, 42.210388%, 42.210388%)" offset="0.566406"/><stop stop-opacity="1" stop-color="rgb(100%, 41.770935%, 41.770935%)" offset="0.570313"/><stop stop-opacity="1" stop-color="rgb(100%, 41.329956%, 41.329956%)" offset="0.574219"/><stop stop-opacity="1" stop-color="rgb(100%, 40.890503%, 40.890503%)" offset="0.578125"/><stop stop-opacity="1" stop-color="rgb(100%, 40.449524%, 40.449524%)" offset="0.582031"/><stop stop-opacity="1" stop-color="rgb(100%, 40.010071%, 40.010071%)" offset="0.585938"/><stop stop-opacity="1" stop-color="rgb(100%, 39.570618%, 39.570618%)" offset="0.589844"/><stop stop-opacity="1" stop-color="rgb(100%, 39.131165%, 39.131165%)" offset="0.59375"/><stop stop-opacity="1" stop-color="rgb(100%, 38.690186%, 38.690186%)" offset="0.597656"/><stop stop-opacity="1" stop-color="rgb(100%, 38.250732%, 38.250732%)" offset="0.601562"/><stop stop-opacity="1" stop-color="rgb(100%, 37.809753%, 37.809753%)" offset="0.605469"/><stop stop-opacity="1" stop-color="rgb(100%, 37.3703%, 37.3703%)" offset="0.609375"/><stop stop-opacity="1" stop-color="rgb(100%, 36.930847%, 36.930847%)" offset="0.613281"/><stop stop-opacity="1" stop-color="rgb(100%, 36.491394%, 36.491394%)" offset="0.617188"/><stop stop-opacity="1" stop-color="rgb(100%, 36.050415%, 36.050415%)" offset="0.621094"/><stop stop-opacity="1" stop-color="rgb(100%, 35.610962%, 35.610962%)" offset="0.625"/><stop stop-opacity="1" stop-color="rgb(100%, 35.169983%, 35.169983%)" offset="0.628906"/><stop stop-opacity="1" stop-color="rgb(100%, 34.73053%, 34.73053%)" offset="0.632812"/><stop stop-opacity="1" stop-color="rgb(100%, 34.289551%, 34.289551%)" offset="0.636719"/><stop stop-opacity="1" stop-color="rgb(100%, 33.850098%, 33.850098%)" offset="0.640625"/><stop stop-opacity="1" stop-color="rgb(100%, 33.410645%, 33.410645%)" offset="0.644531"/><stop stop-opacity="1" stop-color="rgb(100%, 32.971191%, 32.971191%)" offset="0.648438"/><stop stop-opacity="1" stop-color="rgb(100%, 32.530212%, 32.530212%)" offset="0.652344"/><stop stop-opacity="1" stop-color="rgb(100%, 32.090759%, 32.090759%)" offset="0.65625"/><stop stop-opacity="1" stop-color="rgb(100%, 31.64978%, 31.64978%)" offset="0.660156"/><stop stop-opacity="1" stop-color="rgb(100%, 31.210327%, 31.210327%)" offset="0.664063"/><stop stop-opacity="1" stop-color="rgb(100%, 30.770874%, 30.770874%)" offset="0.667969"/><stop stop-opacity="1" stop-color="rgb(100%, 30.331421%, 30.331421%)" offset="0.671875"/><stop stop-opacity="1" stop-color="rgb(100%, 29.890442%, 29.890442%)" offset="0.675781"/><stop stop-opacity="1" stop-color="rgb(100%, 29.450989%, 29.450989%)" offset="0.679688"/><stop stop-opacity="1" stop-color="rgb(100%, 29.01001%, 29.01001%)" offset="0.683594"/><stop stop-opacity="1" stop-color="rgb(100%, 28.570557%, 28.570557%)" offset="0.6875"/><stop stop-opacity="1" stop-color="rgb(100%, 28.129578%, 28.129578%)" offset="0.691406"/><stop stop-opacity="1" stop-color="rgb(100%, 27.690125%, 27.690125%)" offset="0.695313"/><stop stop-opacity="1" stop-color="rgb(100%, 27.250671%, 27.250671%)" offset="0.699219"/><stop stop-opacity="1" stop-color="rgb(100%, 26.811218%, 26.811218%)" offset="0.703125"/><stop stop-opacity="1" stop-color="rgb(100%, 26.370239%, 26.370239%)" offset="0.707031"/><stop stop-opacity="1" stop-color="rgb(100%, 25.930786%, 25.930786%)" offset="0.710938"/><stop stop-opacity="1" stop-color="rgb(100%, 25.489807%, 25.489807%)" offset="0.714844"/><stop stop-opacity="1" stop-color="rgb(100%, 25.050354%, 25.050354%)" offset="0.71875"/><stop stop-opacity="1" stop-color="rgb(100%, 24.609375%, 24.609375%)" offset="0.722656"/><stop stop-opacity="1" stop-color="rgb(100%, 24.169922%, 24.169922%)" offset="0.726563"/><stop stop-opacity="1" stop-color="rgb(100%, 23.730469%, 23.730469%)" offset="0.730469"/><stop stop-opacity="1" stop-color="rgb(100%, 23.291016%, 23.291016%)" offset="0.734375"/><stop stop-opacity="1" stop-color="rgb(100%, 22.850037%, 22.850037%)" offset="0.738281"/><stop stop-opacity="1" stop-color="rgb(100%, 22.410583%, 22.410583%)" offset="0.742188"/><stop stop-opacity="1" stop-color="rgb(100%, 21.969604%, 21.969604%)" offset="0.746094"/><stop stop-opacity="1" stop-color="rgb(100%, 21.530151%, 21.530151%)" offset="0.75"/><stop stop-opacity="1" stop-color="rgb(100%, 21.090698%, 21.090698%)" offset="0.753906"/><stop stop-opacity="1" stop-color="rgb(100%, 20.651245%, 20.651245%)" offset="0.757813"/><stop stop-opacity="1" stop-color="rgb(100%, 20.210266%, 20.210266%)" offset="0.761719"/><stop stop-opacity="1" stop-color="rgb(100%, 19.770813%, 19.770813%)" offset="0.765625"/><stop stop-opacity="1" stop-color="rgb(100%, 19.329834%, 19.329834%)" offset="0.769531"/><stop stop-opacity="1" stop-color="rgb(100%, 18.890381%, 18.890381%)" offset="0.773438"/><stop stop-opacity="1" stop-color="rgb(100%, 18.449402%, 18.449402%)" offset="0.777344"/><stop stop-opacity="1" stop-color="rgb(100%, 18.009949%, 18.009949%)" offset="0.78125"/><stop stop-opacity="1" stop-color="rgb(100%, 17.570496%, 17.570496%)" offset="0.785156"/><stop stop-opacity="1" stop-color="rgb(100%, 17.131042%, 17.131042%)" offset="0.789062"/><stop stop-opacity="1" stop-color="rgb(100%, 16.690063%, 16.690063%)" offset="0.792969"/><stop stop-opacity="1" stop-color="rgb(100%, 16.25061%, 16.25061%)" offset="0.796875"/><stop stop-opacity="1" stop-color="rgb(100%, 15.809631%, 15.809631%)" offset="0.800781"/><stop stop-opacity="1" stop-color="rgb(100%, 15.370178%, 15.370178%)" offset="0.804688"/><stop stop-opacity="1" stop-color="rgb(100%, 14.930725%, 14.930725%)" offset="0.808594"/><stop stop-opacity="1" stop-color="rgb(100%, 14.491272%, 14.491272%)" offset="0.8125"/><stop stop-opacity="1" stop-color="rgb(100%, 14.050293%, 14.050293%)" offset="0.816406"/><stop stop-opacity="1" stop-color="rgb(100%, 13.61084%, 13.61084%)" offset="0.820313"/><stop stop-opacity="1" stop-color="rgb(100%, 13.169861%, 13.169861%)" offset="0.824219"/><stop stop-opacity="1" stop-color="rgb(100%, 12.730408%, 12.730408%)" offset="0.828125"/><stop stop-opacity="1" stop-color="rgb(100%, 12.289429%, 12.289429%)" offset="0.832031"/><stop stop-opacity="1" stop-color="rgb(100%, 11.849976%, 11.849976%)" offset="0.835938"/><stop stop-opacity="1" stop-color="rgb(100%, 11.410522%, 11.410522%)" offset="0.839844"/><stop stop-opacity="1" stop-color="rgb(100%, 10.971069%, 10.971069%)" offset="0.84375"/><stop stop-opacity="1" stop-color="rgb(100%, 10.53009%, 10.53009%)" offset="0.847656"/><stop stop-opacity="1" stop-color="rgb(100%, 10.090637%, 10.090637%)" offset="0.851563"/><stop stop-opacity="1" stop-color="rgb(100%, 9.649658%, 9.649658%)" offset="0.855469"/><stop stop-opacity="1" stop-color="rgb(100%, 9.210205%, 9.210205%)" offset="0.859375"/><stop stop-opacity="1" stop-color="rgb(100%, 8.905029%, 8.905029%)" offset="0.863281"/><stop stop-opacity="1" stop-color="rgb(100%, 8.599854%, 8.599854%)" offset="0.867188"/><stop stop-opacity="1" stop-color="rgb(100%, 8.599854%, 8.599854%)" offset="0.875"/><stop stop-opacity="1" stop-color="rgb(100%, 8.599854%, 8.599854%)" offset="0.886063"/><stop stop-opacity="1" stop-color="rgb(100%, 8.599854%, 8.599854%)" offset="1"/></linearGradient></defs><g clip-path="url(#id1)"><g clip-path="url(#id2)"><path fill="url(#id3)" d="M 60.066406 143.832031 L 60.066406 230.792969 L 134.316406 230.792969 L 134.316406 143.832031 Z M 60.066406 143.832031 " fill-rule="nonzero"/></g></g><g fill="#ff1616" fill-opacity="1"><g transform="translate(169.507744, 223.817505)"><g><path d="M 2.882812 -31.183594 C 2.496094 -31.144531 2.261719 -30.949219 2.261719 -30.519531 L 2.261719 -26.621094 C 2.261719 -26.230469 2.496094 -25.996094 2.882812 -25.996094 L 10.953125 -25.996094 L 1.246094 -0.933594 C 1.011719 -0.390625 1.207031 0 1.832031 0 L 16.996094 0 C 17.382812 -0.0390625 17.617188 -0.273438 17.617188 -0.664062 L 17.617188 -4.519531 C 17.617188 -4.949219 17.382812 -5.144531 16.996094 -5.144531 L 8.417969 -5.144531 L 18.125 -30.246094 C 18.320312 -30.792969 18.164062 -31.183594 17.539062 -31.183594 Z M 2.882812 -31.183594 "/></g></g></g><g fill="#ff1616" fill-opacity="1"><g transform="translate(191.100982, 223.817505)"><g><path d="M 7.25 -5.144531 L 14.96875 -5.144531 C 15.394531 -5.144531 15.589844 -4.910156 15.589844 -4.519531 L 15.589844 -0.625 C 15.589844 -0.195312 15.394531 0 14.96875 0 L 2.574219 0 C 2.183594 0 1.949219 -0.195312 1.949219 -0.625 L 1.949219 -26.660156 C 1.949219 -27.050781 2.183594 -27.285156 2.574219 -27.285156 L 6.625 -27.285156 C 7.054688 -27.285156 7.25 -27.050781 7.25 -26.660156 Z M 7.25 -5.144531 "/></g></g></g><g fill="#ff1616" fill-opacity="1"><g transform="translate(210.472557, 223.817505)"><g><path d="M 2.574219 0 C 2.144531 0 1.949219 -0.234375 1.949219 -0.625 L 1.949219 -26.660156 C 1.949219 -27.050781 2.144531 -27.285156 2.574219 -27.285156 L 6.625 -27.285156 C 7.015625 -27.285156 7.25 -27.050781 7.25 -26.660156 L 7.25 -0.625 C 7.25 -0.234375 7.015625 0 6.625 0 Z M 2.574219 0 "/></g></g></g><g fill="#ff1616" fill-opacity="1"><g transform="translate(221.50313, 223.817505)"><g><path d="M 1.792969 -31.183594 C 1.402344 -31.183594 1.167969 -30.949219 1.167969 -30.558594 L 1.167969 -26.660156 C 1.167969 -26.269531 1.402344 -26.035156 1.792969 -26.035156 L 6.3125 -26.035156 L 6.3125 -0.625 C 6.3125 -0.195312 6.546875 0 6.9375 0 L 10.992188 0 C 11.421875 0 11.617188 -0.195312 11.617188 -0.625 L 11.617188 -26.035156 L 16.136719 -26.035156 C 16.566406 -26.035156 16.761719 -26.269531 16.761719 -26.660156 L 16.761719 -30.558594 C 16.761719 -30.949219 16.566406 -31.183594 16.136719 -31.183594 Z M 1.792969 -31.183594 "/></g></g></g><g fill="#ff1616" fill-opacity="1"><g transform="translate(241.264466, 223.817505)"><g><path d="M 1.792969 -31.183594 C 1.402344 -31.183594 1.167969 -30.949219 1.167969 -30.558594 L 1.167969 -26.660156 C 1.167969 -26.269531 1.402344 -26.035156 1.792969 -26.035156 L 6.3125 -26.035156 L 6.3125 -0.625 C 6.3125 -0.195312 6.546875 0 6.9375 0 L 10.992188 0 C 11.421875 0 11.617188 -0.195312 11.617188 -0.625 L 11.617188 -26.035156 L 16.136719 -26.035156 C 16.566406 -26.035156 16.761719 -26.269531 16.761719 -26.660156 L 16.761719 -30.558594 C 16.761719 -30.949219 16.566406 -31.183594 16.136719 -31.183594 Z M 1.792969 -31.183594 "/></g></g></g><g fill="#ff1616" fill-opacity="1"><g transform="translate(261.025803, 223.817505)"><g><path d="M 17.5 -30.558594 C 17.5 -30.949219 17.34375 -31.183594 16.878906 -31.183594 L 2.535156 -31.183594 C 2.183594 -31.183594 1.949219 -30.949219 1.949219 -30.558594 L 1.949219 -0.625 C 1.949219 -0.234375 2.183594 0 2.535156 0 L 16.878906 0 C 17.34375 0 17.5 -0.234375 17.5 -0.625 L 17.5 -4.519531 C 17.5 -4.949219 17.34375 -5.144531 16.878906 -5.144531 L 7.132812 -5.144531 L 7.132812 -13.019531 L 14.578125 -13.019531 C 14.96875 -13.019531 15.203125 -13.253906 15.203125 -13.679688 L 15.203125 -17.539062 C 15.203125 -17.96875 14.96875 -18.203125 14.578125 -18.203125 L 7.132812 -18.203125 L 7.132812 -25.996094 L 16.878906 -25.996094 C 17.34375 -25.996094 17.5 -26.269531 17.5 -26.660156 Z M 17.5 -30.558594 "/></g></g></g><g fill="#ff1616" fill-opacity="1"><g transform="translate(282.307229, 223.817505)"><g><path d="M 17.96875 -25.570312 C 17.96875 -29.234375 16.019531 -31.183594 12.355469 -31.183594 L 2.574219 -31.183594 C 2.183594 -31.183594 1.949219 -30.949219 1.949219 -30.558594 L 1.949219 -0.625 C 1.949219 -0.234375 2.183594 0 2.574219 0 L 6.625 0 C 7.015625 0 7.25 -0.234375 7.25 -0.625 L 7.25 -10.445312 L 9.9375 -10.445312 L 12.550781 -0.546875 C 12.628906 -0.195312 12.824219 0 13.214844 0 L 17.265625 0 C 17.695312 0 17.929688 -0.234375 17.8125 -0.703125 L 15.125 -10.914062 C 16.996094 -11.730469 17.96875 -13.445312 17.96875 -16.058594 Z M 7.25 -15.589844 L 7.25 -26.035156 L 11.109375 -26.035156 C 12.121094 -26.035156 12.667969 -25.492188 12.667969 -24.476562 L 12.667969 -17.148438 C 12.667969 -16.136719 12.121094 -15.589844 11.109375 -15.589844 Z M 7.25 -15.589844 "/></g></g></g><g fill="#ff1616" fill-opacity="1"><g transform="translate(304.05637, 223.817505)"><g><path d="M 3.195312 -27.285156 C 2.804688 -27.246094 2.574219 -27.050781 2.574219 -26.621094 L 2.574219 -22.761719 C 2.574219 -22.375 2.804688 -22.140625 3.195312 -22.140625 L 11.226562 -22.140625 L 1.285156 -0.933594 C 1.011719 -0.390625 1.246094 0 1.871094 0 L 17.148438 0 C 17.539062 -0.0390625 17.773438 -0.273438 17.773438 -0.664062 L 17.773438 -4.171875 C 17.773438 -4.597656 17.539062 -4.792969 17.148438 -4.792969 L 8.613281 -4.792969 L 18.554688 -26.347656 C 18.824219 -26.894531 18.59375 -27.285156 17.96875 -27.285156 Z M 3.195312 -27.285156 "/></g></g></g><g fill="#ffffff" fill-opacity="1"><g transform="translate(176.566957, 171.670594)"><g><path d="M 1.003906 -17.460938 C 0.785156 -17.460938 0.65625 -17.328125 0.65625 -17.109375 L 0.65625 -14.929688 C 0.65625 -14.710938 0.785156 -14.578125 1.003906 -14.578125 L 3.535156 -14.578125 L 3.535156 -0.347656 C 3.535156 -0.109375 3.667969 0 3.886719 0 L 6.15625 0 C 6.394531 0 6.503906 -0.109375 6.503906 -0.347656 L 6.503906 -14.578125 L 9.035156 -14.578125 C 9.277344 -14.578125 9.382812 -14.710938 9.382812 -14.929688 L 9.382812 -17.109375 C 9.382812 -17.328125 9.277344 -17.460938 9.035156 -17.460938 Z M 1.003906 -17.460938 "/></g></g></g><g fill="#ffffff" fill-opacity="1"><g transform="translate(191.187655, 171.670594)"><g><path d="M 9.800781 -14.929688 C 9.800781 -15.148438 9.710938 -15.277344 9.449219 -15.277344 L 1.417969 -15.277344 C 1.222656 -15.277344 1.089844 -15.148438 1.089844 -14.929688 L 1.089844 -0.347656 C 1.089844 -0.132812 1.222656 0 1.417969 0 L 9.449219 0 C 9.710938 0 9.800781 -0.132812 9.800781 -0.347656 L 9.800781 -2.53125 C 9.800781 -2.773438 9.710938 -2.882812 9.449219 -2.882812 L 4.058594 -2.882812 L 4.058594 -6.109375 L 8.164062 -6.109375 C 8.378906 -6.109375 8.511719 -6.242188 8.511719 -6.480469 L 8.511719 -8.644531 C 8.511719 -8.882812 8.378906 -9.015625 8.164062 -9.015625 L 4.058594 -9.015625 L 4.058594 -12.375 L 9.449219 -12.375 C 9.710938 -12.375 9.800781 -12.527344 9.800781 -12.746094 Z M 9.800781 -14.929688 "/></g></g></g><g fill="#ffffff" fill-opacity="1"><g transform="translate(206.659346, 171.670594)"><g><path d="M 11.394531 0 C 11.65625 0 11.765625 -0.132812 11.699219 -0.371094 L 8.074219 -14.972656 C 8.03125 -15.191406 7.902344 -15.277344 7.703125 -15.277344 L 4.671875 -15.277344 C 4.472656 -15.277344 4.34375 -15.191406 4.300781 -14.972656 L 0.675781 -0.371094 C 0.609375 -0.132812 0.71875 0 0.960938 0 L 3.097656 0 C 3.296875 0 3.40625 -0.109375 3.449219 -0.304688 L 4.125 -3.054688 L 8.226562 -3.054688 L 8.925781 -0.304688 C 8.96875 -0.109375 9.078125 0 9.277344 0 Z M 7.550781 -5.585938 L 4.800781 -5.585938 L 6.175781 -11.523438 Z M 7.550781 -5.585938 "/></g></g></g><g fill="#ffffff" fill-opacity="1"><g transform="translate(223.614823, 171.670594)"><g><path d="M 10.214844 -15.277344 C 9.953125 -15.277344 9.800781 -15.148438 9.734375 -14.90625 L 7.3125 -5.171875 L 4.890625 -14.90625 C 4.824219 -15.148438 4.671875 -15.277344 4.410156 -15.277344 L 1.527344 -15.277344 C 1.242188 -15.277344 1.089844 -15.125 1.089844 -14.839844 L 1.089844 -0.4375 C 1.089844 -0.152344 1.242188 0 1.527344 0 L 3.535156 0 C 3.820312 0 3.972656 -0.152344 3.972656 -0.4375 L 3.972656 -9.015625 L 4.125 -9.015625 L 6.175781 -0.371094 C 6.242188 -0.132812 6.394531 0 6.65625 0 L 7.945312 0 C 8.207031 0 8.359375 -0.132812 8.425781 -0.371094 L 10.476562 -9.015625 L 10.628906 -9.015625 L 10.628906 -0.4375 C 10.628906 -0.152344 10.78125 0 11.066406 0 L 13.09375 0 C 13.378906 0 13.53125 -0.152344 13.53125 -0.4375 L 13.53125 -14.839844 C 13.53125 -15.125 13.378906 -15.277344 13.09375 -15.277344 Z M 10.214844 -15.277344 "/></g></g></g></svg>